<?xml version="1.0" encoding="UTF-8"?>
<svg version="1.1" xmlns="http://www.w3.org/2000/svg" width="540" height="179">
<path d="M0 0 C14.00884165 11.75354826 24.97203669 28.6105309 26.72573853 47.26963806 C26.81784066 49.55541799 26.85290232 51.83346989 26.859375 54.12109375 C26.8693602 55.38251442 26.8693602 55.38251442 26.87954712 56.66941833 C26.8896173 58.44178096 26.8943659 60.21418106 26.89404297 61.98657227 C26.8983868 64.64861478 26.93468413 67.3089562 26.97265625 69.97070312 C27.06477785 83.69058355 25.33769681 96.07190819 18.7734375 108.3671875 C18.25583862 109.36129639 18.25583862 109.36129639 17.7277832 110.37548828 C8.61161962 127.45717141 -4.80729959 140.27501416 -23.30078125 146.46484375 C-44.14516616 152.64505989 -66.86644651 152.07060263 -86.4765625 142.1171875 C-103.80059808 132.47700988 -115.80919557 118.40083648 -121.62890625 99.34375 C-128.74233554 74.06462113 -128.07031716 44.64365005 -115.4765625 21.1171875 C-113.35508589 17.58804876 -111.04446783 14.33388419 -108.4765625 11.1171875 C-107.85910156 10.33601563 -107.24164063 9.55484375 -106.60546875 8.75 C-81.7143931 -20.99909242 -29.80423676 -23.16165027 0 0 Z M-89.4765625 14.1171875 C-100.65307694 29.54392574 -103.88137777 48.69809634 -103.7890625 67.3671875 C-103.78414795 68.54941895 -103.7792334 69.73165039 -103.77416992 70.94970703 C-103.47894096 93.06311351 -97.46551689 113.28550152 -81.4765625 129.1171875 C-75.44026055 134.74534092 -69.37703233 137.80303413 -61.4765625 140.1171875 C-60.86296875 140.30925781 -60.249375 140.50132812 -59.6171875 140.69921875 C-46.12417414 143.33380348 -32.25626351 140.31798767 -20.8125 132.85546875 C-5.12459601 121.18135959 2.15740451 103.22842174 5.12646484 84.40087891 C7.8210083 62.11206618 7.16463696 34.05566574 -6.8515625 15.3046875 C-8.03847891 13.89059784 -9.24623126 12.4936704 -10.4765625 11.1171875 C-11.02183594 10.49070312 -11.56710937 9.86421875 -12.12890625 9.21875 C-21.39093739 -0.76245062 -33.9907211 -5.75614519 -47.50292969 -6.35571289 C-64.97507286 -6.5882558 -78.36739469 0.9185859 -89.4765625 14.1171875 Z " fill="#DBBB5A" transform="translate(510.4765625,23.8828125)"/>
<path d="M0 0 C1.57587891 0.12568359 1.57587891 0.12568359 3.18359375 0.25390625 C10.61256437 0.80665704 17.60283505 1.18883008 25 0 C24.9285376 1.04454346 24.8570752 2.08908691 24.78344727 3.1652832 C23.85757216 17.83998292 23.88585766 32.48892044 23.9375 47.1875 C23.94252897 49.70247306 23.94708939 52.2174471 23.95117188 54.73242188 C23.96205768 60.82163645 23.97868328 66.91081346 24 73 C26.36941312 70.95288936 28.73754394 68.90430066 31.10546875 66.85546875 C32.09927551 65.9968927 32.09927551 65.9968927 33.11315918 65.12097168 C44.73270106 55.063062 56.15623956 44.76062542 66.15625 33.0625 C68.34796313 30.61075311 70.66067104 28.31114427 73 26 C75.89773445 23.12841052 78.74583932 20.25354034 81.4375 17.1875 C81.99050781 16.56359375 82.54351562 15.9396875 83.11328125 15.296875 C84.64757089 13.42904414 86.03133406 11.55304523 87.41796875 9.578125 C94.14550675 0.34075494 94.14550675 0.34075494 99.31640625 -0.609375 C102.63895486 -0.31677512 105.74799806 0.27268851 109 1 C110.60267681 1.07219265 112.2086886 1.10217025 113.8125 1.0625 C115.3903125 1.0315625 115.3903125 1.0315625 117 1 C115.8717446 2.1282554 114.74312686 3.25614956 113.61328125 4.3828125 C112.4597124 5.53917449 111.31190691 6.70129744 110.16796875 7.8671875 C106.89603451 11.18429638 103.59846326 14.4016431 100.0625 17.4375 C97.07198284 20.00665271 94.26883316 22.69317256 91.5 25.5 C88.87292508 28.16269628 86.23270989 30.7126475 83.375 33.125 C79.19617661 36.69965616 75.3666149 40.59557904 71.5 44.5 C67.12241754 48.920301 62.74392557 53.2263592 57.984375 57.23828125 C53.44738143 61.26620271 49.25308718 65.67654925 45 70 C46.50481193 75.28199088 49.96479283 78.47775579 53.6875 82.3125 C54.97084311 83.6607058 56.25340557 85.00965517 57.53515625 86.359375 C58.14375488 86.99681641 58.75235352 87.63425781 59.37939453 88.29101562 C62.80593839 91.90442433 66.03242926 95.68241765 69.25439453 99.47753906 C75.32040597 106.62022012 81.45736826 113.66068759 87.84375 120.51953125 C91.05969439 123.97369374 94.20517955 127.47435592 97.29296875 131.04296875 C100.08450793 134.24333747 102.94309854 137.38322688 105.7890625 140.53515625 C108.38822296 143.43280687 110.94685808 146.36363531 113.4921875 149.30859375 C114.95422236 151.0328365 114.95422236 151.0328365 116.6953125 152.41015625 C118.49809896 154.6069649 118.093963 156.23371807 118 159 C113.73218053 159.29893132 109.47002356 159.51529817 105.19482422 159.65917969 C103.74485151 159.71917856 102.29559469 159.80082843 100.84814453 159.90527344 C95.99482369 160.24644417 91.72295034 160.28293322 87 159 C83.31719105 155.48397804 81.27124909 151.51315018 79 147 C78.10590393 145.71253775 77.17819436 144.44681865 76.19921875 143.22265625 C75.78526855 142.69647705 75.37131836 142.17029785 74.94482422 141.62817383 C74.52990723 141.11150146 74.11499023 140.5948291 73.6875 140.0625 C73.22875488 139.48459717 72.77000977 138.90669434 72.29736328 138.3112793 C68.17291449 133.14694139 63.90805661 128.10485142 59.61328125 123.08203125 C57.20918687 120.26364971 54.88232006 117.38828047 52.5625 114.5 C48.19366948 109.12720124 43.52162441 104.07638711 38.80078125 99.015625 C33.66731109 93.50921778 28.81549743 87.78339723 24 82 C23.83116813 120.51198582 23.83116813 120.51198582 25 159 C16.42 159 7.84 159 -1 159 C-0.7834375 155.39384766 -0.7834375 155.39384766 -0.5625 151.71484375 C0.85683011 126.25121838 1.20042295 100.82691169 1.18847656 75.33082962 C1.18751549 72.79093461 1.18845963 70.25104591 1.18969727 67.71115112 C1.19397676 45.12440101 0.80000064 22.57263448 0 0 Z " fill="#CBA74B" transform="translate(242,11)"/>
<path d="M0 0 C30.69 0 61.38 0 93 0 C93 4.29 93 8.58 93 13 C90.9065625 12.84660156 88.813125 12.69320313 86.65625 12.53515625 C74.62037803 11.7378987 62.55703255 11.64398247 50.5 11.4375 C42.415 11.293125 34.33 11.14875 26 11 C26 30.14 26 49.28 26 69 C56.69 68.505 56.69 68.505 88 68 C88 72.29 88 76.58 88 81 C86.22157715 80.90150757 86.22157715 80.90150757 84.40722656 80.80102539 C71.52369859 80.10973623 58.64844237 79.71401333 45.75 79.4375 C39.2325 79.293125 32.715 79.14875 26 79 C26 101.44 26 123.88 26 147 C31.89875 146.855625 37.7975 146.71125 43.875 146.5625 C45.69499512 146.51939697 47.51499023 146.47629395 49.39013672 146.43188477 C58.25526643 146.21156292 67.10224663 145.88760116 75.95333862 145.33253479 C82.31264753 144.94135913 88.63069951 144.92593837 95 145 C95 149.29 95 153.58 95 158 C63.32 158 31.64 158 -1 158 C-0.67 149.09 -0.34 140.18 0 131 C1.16169597 97.43989432 1.38640541 63.94517618 0.35595703 30.37768555 C0.33296539 29.60884537 0.30997375 28.84000519 0.2862854 28.04786682 C0.22406243 25.99553496 0.15810395 23.94331725 0.09179688 21.89111328 C-0.04513171 14.5952962 0 7.29710192 0 0 Z " fill="#E3C15D" transform="translate(1,12)"/>
<path d="M0 0 C0 52.47 0 104.94 0 159 C-8.25 159 -16.5 159 -25 159 C-24.8928064 156.20257324 -24.8928064 156.20257324 -24.78344727 153.34863281 C-24.08459695 133.16422374 -23.90039184 112.99290382 -23.90234375 92.796875 C-23.90240811 92.13096659 -23.90247247 91.46505817 -23.90253878 90.77897072 C-23.90418351 82.54277778 -23.91452249 74.30660473 -23.92797339 66.0704236 C-23.93938194 58.95492525 -23.94470674 51.83942565 -23.94967639 44.72392035 C-23.9599841 30.14927091 -23.97744215 15.57463579 -24 1 C-22.97374512 1.00580078 -21.94749023 1.01160156 -20.89013672 1.01757812 C-19.52832077 1.02227 -18.16650433 1.02681978 -16.8046875 1.03125 C-15.79281372 1.03753418 -15.79281372 1.03753418 -14.76049805 1.04394531 C-9.79647818 1.0560453 -4.89265936 0 0 0 Z " fill="#E6C560" transform="translate(176,11)"/>
<path d="M0 0 C19.87400438 2.94238506 36.78962267 10.26874333 50 26 C59.15728909 38.73409641 65.29127357 53.21843974 65.3359375 69.00390625 C65.3459227 70.26532692 65.3459227 70.26532692 65.35610962 71.55223083 C65.3661798 73.32459346 65.3709284 75.09699356 65.37060547 76.86938477 C65.3749493 79.53142728 65.41124663 82.1917687 65.44921875 84.85351562 C65.54134035 98.57339605 63.81425931 110.95472069 57.25 123.25 C56.73240112 124.24410889 56.73240112 124.24410889 56.2043457 125.25830078 C50.60732078 135.74589299 43.58058323 144.86486451 34 152 C33.01 152 32.02 152 31 152 C31.020625 151.071875 31.04125 150.14375 31.0625 149.1875 C31.15769604 145.97713989 31.15769604 145.97713989 30 143 C29.34 143 28.68 143 28 143 C28 143.99 28 144.98 28 146 C28.66 146 29.32 146 30 146 C30.25 148.3125 30.25 148.3125 30 151 C28 152.8125 28 152.8125 26 154 C23.75972706 151.11964908 21.83827868 148.15133488 20 145 C20.4846875 144.58492187 20.969375 144.16984375 21.46875 143.7421875 C35.52626791 130.82008449 41.99043741 111.32618531 43.22119141 92.64208984 C43.98555514 69.62986242 43.58273494 43.88399583 27 26 C20.59133816 19.41232526 13.73762397 14.91254132 5 12 C4 5.25 4 5.25 4 3 C3.01 3.495 3.01 3.495 2 4 C2 3.34 2 2.68 2 2 C1.34 2 0.68 2 0 2 C0 2.66 0 3.32 0 4 C-0.66 4 -1.32 4 -2 4 C-1.34 2.68 -0.68 1.36 0 0 Z " fill="#FBF497" transform="translate(472,9)"/>
<path d="M0 0 C1.57587891 0.12568359 1.57587891 0.12568359 3.18359375 0.25390625 C10.61256437 0.80665704 17.60283505 1.18883008 25 0 C24.92346191 1.0307666 24.84692383 2.0615332 24.76806641 3.12353516 C24.09823922 13.15031971 23.97537745 23.10118354 24.1484375 33.1484375 C24.18368798 35.66145701 24.21884308 38.17447787 24.25390625 40.6875 C24.30983035 44.56358471 24.37657428 48.43817497 24.47314453 52.31347656 C24.56369692 56.11288413 24.6099779 59.91069314 24.6484375 63.7109375 C24.68770355 64.87233246 24.7269696 66.03372742 24.76742554 67.23031616 C24.79456949 75.03067396 24.79456949 75.03067396 22.46759033 77.8694458 C20.09467249 79.63184856 18.02565962 81 15 81 C15 79.68 15 78.36 15 77 C14.34 77 13.68 77 13 77 C13 78.98 13 80.96 13 83 C14.423125 82.690625 14.423125 82.690625 15.875 82.375 C17.421875 82.189375 17.421875 82.189375 19 82 C19.66 82.66 20.32 83.32 21 84 C20.34 84.99 19.68 85.98 19 87 C17.68 87 16.36 87 15 87 C15 88.32 15 89.64 15 91 C16.485 90.505 16.485 90.505 18 90 C17.67 90.99 17.34 91.98 17 93 C16.34 93 15.68 93 15 93 C15 94.98 15 96.96 15 99 C15.99 99 16.98 99 18 99 C18.33 98.34 18.66 97.68 19 97 C19.33 98.32 19.66 99.64 20 101 C18.02 101 16.04 101 14 101 C14 101.99 14 102.98 14 104 C12.88625 103.7215625 12.88625 103.7215625 11.75 103.4375 C9.03100146 103.00493205 7.53815599 103.00286729 5 104 C4.505 104.99 4.505 104.99 4 106 C4.99 106 5.98 106 7 106 C7 106.66 7 107.32 7 108 C7.66 108 8.32 108 9 108 C9 108.66 9 109.32 9 110 C10.485 109.505 10.485 109.505 12 109 C12 109.99 12 110.98 12 112 C15.54518884 110.60240095 15.54518884 110.60240095 19 109 C18.79375 109.61875 18.5875 110.2375 18.375 110.875 C18.25125 111.57625 18.1275 112.2775 18 113 C18.66 113.66 19.32 114.32 20 115 C19.34 115 18.68 115 18 115 C18.33 116.65 18.66 118.3 19 120 C19.66 120 20.32 120 21 120 C20.25 126.75 20.25 126.75 18 129 C18.32041397 131.60280568 18.32041397 131.60280568 19 134 C18.34 134.33 17.68 134.66 17 135 C17 135.66 17 136.32 17 137 C17.66 137 18.32 137 19 137 C19.33 137.99 19.66 138.98 20 140 C20.66 140.33 21.32 140.66 22 141 C22 141.66 22 142.32 22 143 C20.0625 142.6875 20.0625 142.6875 18 142 C17.67 141.01 17.34 140.02 17 139 C16.01 138.67 15.02 138.34 14 138 C14 137.01 14 136.02 14 135 C13.34 134.67 12.68 134.34 12 134 C12.33 133.67 12.66 133.34 13 133 C11.35 132.34 9.7 131.68 8 131 C8 130.34 8 129.68 8 129 C6.68 129 5.36 129 4 129 C4 130.32 4 131.64 4 133 C6.31 133 8.62 133 11 133 C10.01 133.33 9.02 133.66 8 134 C8.33 134.99 8.66 135.98 9 137 C11.50447516 138.21869929 11.50447516 138.21869929 14 139 C13.67 140.65 13.34 142.3 13 144 C11.68 144 10.36 144 9 144 C8.505 144.99 8.505 144.99 8 146 C8.99 146 9.98 146 11 146 C11 146.99 11 147.98 11 149 C11.66 149 12.32 149 13 149 C13 148.34 13 147.68 13 147 C14.98 147.33 16.96 147.66 19 148 C18.67 146.35 18.34 144.7 18 143 C18.66 143.33 19.32 143.66 20 144 C20 144.66 20 145.32 20 146 C21.98 145.01 21.98 145.01 24 144 C24.33 148.95 24.66 153.9 25 159 C16.42 159 7.84 159 -1 159 C-0.7834375 155.39384766 -0.7834375 155.39384766 -0.5625 151.71484375 C0.85683011 126.25121838 1.20042295 100.82691169 1.18847656 75.33082962 C1.18751549 72.79093461 1.18845963 70.25104591 1.18969727 67.71115112 C1.19397676 45.12440101 0.80000064 22.57263448 0 0 Z " fill="#D4B152" transform="translate(242,11)"/>
<path d="M0 0 C0.92232422 0.00451172 1.84464844 0.00902344 2.79492188 0.01367188 C5.05085048 0.02536062 7.30663967 0.04174545 9.5625 0.0625 C8.9025 1.3825 8.2425 2.7025 7.5625 4.0625 C8.2225 4.0625 8.8825 4.0625 9.5625 4.0625 C9.5625 3.4025 9.5625 2.7425 9.5625 2.0625 C10.8825 2.0625 12.2025 2.0625 13.5625 2.0625 C14.5525 3.0525 14.5525 3.0525 15.5625 4.0625 C15.1875 6.5625 15.1875 6.5625 14.5625 9.0625 C14.5625 9.7225 14.5625 10.3825 14.5625 11.0625 C13.5725 10.8975 12.5825 10.7325 11.5625 10.5625 C-3.58657104 8.76606149 -17.60501376 9.54780988 -30.1640625 19.16015625 C-44.9419412 31.52583825 -51.72081617 47.73145583 -53.8828125 66.609375 C-54.84343908 70.85777987 -56.87410521 72.68690348 -60.4375 75.0625 C-60.7675 75.7225 -61.0975 76.3825 -61.4375 77.0625 C-62.7575 77.0625 -64.0775 77.0625 -65.4375 77.0625 C-65.9325 78.0525 -65.9325 78.0525 -66.4375 79.0625 C-67.33424777 76.55160624 -67.56922674 75.41714891 -66.625 72.875 C-65.4375 71.0625 -65.4375 71.0625 -63.4375 70.0625 C-64.0975 69.7325 -64.7575 69.4025 -65.4375 69.0625 C-64.7775 67.7425 -64.1175 66.4225 -63.4375 65.0625 C-64.0975 64.7325 -64.7575 64.4025 -65.4375 64.0625 C-65.7675 65.0525 -66.0975 66.0425 -66.4375 67.0625 C-66.7675 67.0625 -67.0975 67.0625 -67.4375 67.0625 C-67.7675 69.0425 -68.0975 71.0225 -68.4375 73.0625 C-70.4175 73.5575 -70.4175 73.5575 -72.4375 74.0625 C-72.4375 72.7425 -72.4375 71.4225 -72.4375 70.0625 C-73.4275 70.5575 -73.4275 70.5575 -74.4375 71.0625 C-74.4375 73.3725 -74.4375 75.6825 -74.4375 78.0625 C-75.4275 78.5575 -75.4275 78.5575 -76.4375 79.0625 C-80.30003699 71.33742602 -75.64388346 57.09147478 -73.15332031 49.11669922 C-67.08678115 31.70746984 -55.60513907 16.48127288 -38.92626953 8.10107422 C-26.35985457 2.14118515 -13.82765343 -0.12941648 0 0 Z " fill="#D2B052" transform="translate(462.4375,8.9375)"/>
<path d="M0 0 C0.10044725 10.87457373 0.13448791 21.75545182 -0.25 32.625 C-0.26409912 33.41108643 -0.27819824 34.19717285 -0.29272461 35.00708008 C-0.44657442 38.49498193 -0.75032203 40.64936529 -2.796875 43.5234375 C-5 45 -5 45 -9 45 C-9 45.66 -9 46.32 -9 47 C-6.525 46.505 -6.525 46.505 -4 46 C-4.33 47.65 -4.66 49.3 -5 51 C-5.33 50.34 -5.66 49.68 -6 49 C-11.445 49.495 -11.445 49.495 -17 50 C-17.33 50.99 -17.66 51.98 -18 53 C-18.99 53 -19.98 53 -21 53 C-20.34 53.33 -19.68 53.66 -19 54 C-19 54.66 -19 55.32 -19 56 C-20.32 55.67 -21.64 55.34 -23 55 C-23.9575084 36.98559993 -24.12059047 19.03291283 -24 1 C-22.97374512 1.00580078 -21.94749023 1.01160156 -20.89013672 1.01757812 C-19.52832077 1.02227 -18.16650433 1.02681978 -16.8046875 1.03125 C-15.79281372 1.03753418 -15.79281372 1.03753418 -14.76049805 1.04394531 C-9.79647818 1.0560453 -4.89265936 0 0 0 Z " fill="#EFD36C" transform="translate(176,11)"/>
<path d="M0 0 C1.32 0.99 2.64 1.98 4 3 C3.030625 3.2475 2.06125 3.495 1.0625 3.75 C0.051875 4.1625 -0.95875 4.575 -2 5 C-2.96877057 7.03243548 -2.96877057 7.03243548 -3 9 C-2.01 9 -1.02 9 0 9 C1.625 10.4375 1.625 10.4375 3 12 C3.33 12.33 3.66 12.66 4 13 C4.66 12.01 5.32 11.02 6 10 C5.34 9.67 4.68 9.34 4 9 C4 8.01 4 7.02 4 6 C4.66 5.67 5.32 5.34 6 5 C6.33 4.01 6.66 3.02 7 2 C8.32 2.33 9.64 2.66 11 3 C11 3.66 11 4.32 11 5 C11.71414063 4.72285156 12.42828125 4.44570312 13.1640625 4.16015625 C16 4 16 4 18.6484375 6.24609375 C19.57409535 7.29530694 20.48216223 8.36022033 21.375 9.4375 C21.85759277 9.99228027 22.34018555 10.54706055 22.83740234 11.11865234 C24.23912025 12.73421548 25.62003751 14.36586136 27 16 C28.2058984 17.37713597 29.41381447 18.75251173 30.625 20.125 C31.15738281 20.73859375 31.68976563 21.3521875 32.23828125 21.984375 C38.46396747 29.13630908 38.46396747 29.13630908 45 36 C45.125 38.625 45.125 38.625 45 41 C40.73218053 41.29893132 36.47002356 41.51529817 32.19482422 41.65917969 C30.74485151 41.71917856 29.29559469 41.80082843 27.84814453 41.90527344 C22.99517139 42.24641972 18.72294851 42.28136212 14 41 C10.32203521 37.48660596 8.29114688 33.49615512 6 29 C5.0152032 27.62730827 3.99295589 26.27983146 2.91796875 24.9765625 C2.46099609 24.41066406 2.00402344 23.84476563 1.53320312 23.26171875 C0.6166922 22.14700735 -0.29998093 21.0324293 -1.21679688 19.91796875 C-4.00643092 16.46185562 -6.25384897 13.12941123 -8 9 C-7.6875 6.625 -7.6875 6.625 -7 5 C-6.34 5 -5.68 5 -5 5 C-5.33 6.65 -5.66 8.3 -6 10 C-5.34 10 -4.68 10 -4 10 C-4 8.02 -4 6.04 -4 4 C-2.68 3.34 -1.36 2.68 0 2 C0 1.34 0 0.68 0 0 Z " fill="#D0AD50" transform="translate(315,129)"/>
<path d="M0 0 C3 0 3 0 4.5078125 1.50390625 C5.30832031 2.52291016 5.30832031 2.52291016 6.125 3.5625 C12.89588653 11.56574454 19.94485483 16.05471338 30 19 C30.92039062 19.28810547 30.92039062 19.28810547 31.859375 19.58203125 C44.03783175 21.9599416 57.16187994 19.92737298 67.625 13.25 C68.21539062 12.82203125 68.80578125 12.3940625 69.4140625 11.953125 C71 11 71 11 74 11 C74 11.66 74 12.32 74 13 C74.99 13.33 75.98 13.66 77 14 C78.6875 15.5625 78.6875 15.5625 80 17 C80.495 15.515 80.495 15.515 81 14 C81.66 14 82.32 14 83 14 C83 13.01 83 12.02 83 11 C82.34 11 81.68 11 81 11 C81 10.01 81 9.02 81 8 C81.66 8 82.32 8 83 8 C85.4294516 11.6441774 85.16179575 13.71241272 85 18 C63.29002178 29.46788059 41.11848213 33.92997111 17 27 C11.48729996 25.01692465 6.21934048 22.65245172 1 20 C1 18.35 1 16.7 1 15 C0.34 15 -0.32 15 -1 15 C-1 14.34 -1 13.68 -1 13 C-1.99 13.33 -2.98 13.66 -4 14 C-4.66 13.67 -5.32 13.34 -6 13 C-5.67 11.35 -5.34 9.7 -5 8 C-1.125 8.875 -1.125 8.875 0 10 C0.33 8.68 0.66 7.36 1 6 C0.34 6 -0.32 6 -1 6 C-0.67 4.02 -0.34 2.04 0 0 Z " fill="#E7CC68" transform="translate(419,144)"/>
<path d="M0 0 C21.84046849 3.23352391 38.08248289 11.9969174 52.5 28.9375 C54.58849728 33.20151528 54.81426583 37.30092551 55 42 C54.34 41.01 53.68 40.02 53 39 C53.495 38.01 53.495 38.01 54 37 C53.01 37 52.02 37 51 37 C50.67 37.99 50.34 38.98 50 40 C49.87625 39.360625 49.7525 38.72125 49.625 38.0625 C49.41875 37.381875 49.2125 36.70125 49 36 C48.01 35.505 48.01 35.505 47 35 C46.505 35.99 46.505 35.99 46 37 C45.67 36.67 45.34 36.34 45 36 C44.505 36.99 44.505 36.99 44 38 C43.34 38 42.68 38 42 38 C41.8549963 40.88067404 41.8549963 40.88067404 42.625 43.0625 C42.74875 43.701875 42.8725 44.34125 43 45 C42.34 45.66 41.68 46.32 41 47 C40.34 47 39.68 47 39 47 C38.72027344 46.23816406 38.44054687 45.47632813 38.15234375 44.69140625 C32.72609315 30.7157576 23.86849713 20.32731215 10.1640625 13.91015625 C7.88537211 12.91940508 7.88537211 12.91940508 5 12 C4 5.25 4 5.25 4 3 C3.01 3.495 3.01 3.495 2 4 C2 3.34 2 2.68 2 2 C1.34 2 0.68 2 0 2 C0 2.66 0 3.32 0 4 C-0.66 4 -1.32 4 -2 4 C-1.34 2.68 -0.68 1.36 0 0 Z " fill="#F8ED8C" transform="translate(472,9)"/>
<path d="M0 0 C1.57587891 0.12568359 1.57587891 0.12568359 3.18359375 0.25390625 C10.61256437 0.80665704 17.60283505 1.18883008 25 0 C24.89008434 3.10489399 24.75946585 6.20857994 24.625 9.3125 C24.57859375 10.63411133 24.57859375 10.63411133 24.53125 11.98242188 C24.49257813 12.82998047 24.45390625 13.67753906 24.4140625 14.55078125 C24.3826416 15.33106689 24.3512207 16.11135254 24.31884766 16.9152832 C24 19 24 19 22 22 C21.61500109 23.65549531 21.27206865 25.3222433 21 27 C18.36 26.67 15.72 26.34 13 26 C13 28.64 13 31.28 13 34 C12.01 33.67 11.02 33.34 10 33 C8.87483915 34.83284443 8.87483915 34.83284443 8 37 C8.33 37.99 8.66 38.98 9 40 C9.66 40 10.32 40 11 40 C11 40.99 11 41.98 11 43 C7.535 43.495 7.535 43.495 4 44 C4.99 44.33 5.98 44.66 7 45 C7 45.66 7 46.32 7 47 C5.02 47.495 5.02 47.495 3 48 C-1.21061372 39.57877257 0.68025979 25.65917144 0.4375 16.25 C0.39418522 14.66665829 0.35056744 13.08332485 0.30664062 11.5 C0.20094127 7.66675271 0.0993163 3.83341776 0 0 Z " fill="#E7CA66" transform="translate(242,11)"/>
<path d="M0 0 C0 14.85 0 29.7 0 45 C-0.66 45 -1.32 45 -2 45 C-2.33 44.34 -2.66 43.68 -3 43 C-3.66 43.66 -4.32 44.32 -5 45 C-5.99 44.67 -6.98 44.34 -8 44 C-8 43.34 -8 42.68 -8 42 C-7.34 42 -6.68 42 -6 42 C-6 41.01 -6 40.02 -6 39 C-6.66 39 -7.32 39 -8 39 C-8 39.66 -8 40.32 -8 41 C-8.99 41.495 -8.99 41.495 -10 42 C-10 44.97 -10 47.94 -10 51 C-9.34 51 -8.68 51 -8 51 C-8 51.66 -8 52.32 -8 53 C-9.32 53 -10.64 53 -12 53 C-12 52.34 -12 51.68 -12 51 C-12.99 51 -13.98 51 -15 51 C-15.33 49.68 -15.66 48.36 -16 47 C-16 47.99 -16 48.98 -16 50 C-17.65 50.66 -19.3 51.32 -21 52 C-21 43.09 -21 34.18 -21 25 C-20.67 25.66 -20.34 26.32 -20 27 C-18.68 26.67 -17.36 26.34 -16 26 C-16 25.34 -16 24.68 -16 24 C-16.99 24.33 -17.98 24.66 -19 25 C-19 24.34 -19 23.68 -19 23 C-18.01 23 -17.02 23 -16 23 C-15.67 22.01 -15.34 21.02 -15 20 C-15 20.66 -15 21.32 -15 22 C-14.01 22 -13.02 22 -12 22 C-12 21.01 -12 20.02 -12 19 C-12.66 19 -13.32 19 -14 19 C-14 18.34 -14 17.68 -14 17 C-14.66 16.67 -15.32 16.34 -16 16 C-15.01 14.02 -14.02 12.04 -13 10 C-12.67 10.99 -12.34 11.98 -12 13 C-11.34 13 -10.68 13 -10 13 C-10.185625 12.05125 -10.37125 11.1025 -10.5625 10.125 C-11 7 -11 7 -10 5 C-7.03 5.495 -7.03 5.495 -4 6 C-4 4.35 -4 2.7 -4 1 C-1 0 -1 0 0 0 Z M-13 13 C-12 15 -12 15 -12 15 Z M-15 44 C-14.34 44.66 -13.68 45.32 -13 46 C-13 45.34 -13 44.68 -13 44 C-13.66 44 -14.32 44 -15 44 Z " fill="#E0C05E" transform="translate(265,32)"/>
<path d="M0 0 C0.92232422 0.00451172 1.84464844 0.00902344 2.79492188 0.01367188 C5.05085048 0.02536062 7.30663967 0.04174545 9.5625 0.0625 C8.9025 1.3825 8.2425 2.7025 7.5625 4.0625 C8.2225 4.0625 8.8825 4.0625 9.5625 4.0625 C9.5625 3.4025 9.5625 2.7425 9.5625 2.0625 C10.8825 2.0625 12.2025 2.0625 13.5625 2.0625 C14.5525 3.0525 14.5525 3.0525 15.5625 4.0625 C15.1875 6.5625 15.1875 6.5625 14.5625 9.0625 C14.5625 9.7225 14.5625 10.3825 14.5625 11.0625 C13.5725 10.8975 12.5825 10.7325 11.5625 10.5625 C-3.60083861 8.76436958 -17.55553151 9.5713345 -30.15234375 19.13671875 C-34.92578105 23.15946163 -39.42996033 27.27728177 -42.8125 32.5625 C-43.34875 33.3875 -43.885 34.2125 -44.4375 35.0625 C-45.0975 35.0625 -45.7575 35.0625 -46.4375 35.0625 C-46.7675 34.4025 -47.0975 33.7425 -47.4375 33.0625 C-48.0975 34.0525 -48.7575 35.0425 -49.4375 36.0625 C-49.4375 32.7625 -49.4375 29.4625 -49.4375 26.0625 C-48.7775 26.0625 -48.1175 26.0625 -47.4375 26.0625 C-47.1075 25.4025 -46.7775 24.7425 -46.4375 24.0625 C-46.4375 25.3825 -46.4375 26.7025 -46.4375 28.0625 C-45.7775 27.4025 -45.1175 26.7425 -44.4375 26.0625 C-44.4375 25.0725 -44.4375 24.0825 -44.4375 23.0625 C-45.0975 23.0625 -45.7575 23.0625 -46.4375 23.0625 C-46.4375 21.7425 -46.4375 20.4225 -46.4375 19.0625 C-45.1175 19.0625 -43.7975 19.0625 -42.4375 19.0625 C-43.0975 17.0825 -43.7575 15.1025 -44.4375 13.0625 C-33.79339915 1.45747338 -14.83454116 -0.1388402 0 0 Z " fill="#DFC05E" transform="translate(462.4375,8.9375)"/>
<path d="M0 0 C1.9375 0.375 1.9375 0.375 4 1 C4.33 1.66 4.66 2.32 5 3 C4.67 3.99 4.34 4.98 4 6 C4.99 6 5.98 6 7 6 C7.1451001 6.53778076 7.2902002 7.07556152 7.43969727 7.62963867 C10.27652555 17.98787455 13.18541272 27.4272847 18.77734375 36.6640625 C19.38255859 37.82035156 19.38255859 37.82035156 20 39 C19.67 39.66 19.34 40.32 19 41 C18.32650839 42.66392045 17.6590841 44.33032028 17 46 C17.66 46 18.32 46 19 46 C19 48.31 19 50.62 19 53 C18.7525 52.360625 18.505 51.72125 18.25 51.0625 C17.18437567 48.81258459 17.18437567 48.81258459 14.875 48.25 C14.25625 48.1675 13.6375 48.085 13 48 C12.67 49.65 12.34 51.3 12 53 C12.763125 52.95875 13.52625 52.9175 14.3125 52.875 C17 53 17 53 20 55 C19.34 56.32 18.68 57.64 18 59 C7.6010956 51.98456266 -1.94223434 43.81478066 -7 32 C-6.875 28.375 -6.875 28.375 -6 26 C-4.68 26.33 -3.36 26.66 -2 27 C-1.67 25.68 -1.34 24.36 -1 23 C-0.01 24.65 0.98 26.3 2 28 C2.66 27.34 3.32 26.68 4 26 C3.6814823 23.89179203 3.6814823 23.89179203 3 22 C4.32 21.67 5.64 21.34 7 21 C7 20.34 7 19.68 7 19 C6.34 19 5.68 19 5 19 C4.34 16.36 3.68 13.72 3 11 C2.34 13.64 1.68 16.28 1 19 C1.66 19 2.32 19 3 19 C2.67 19.66 2.34 20.32 2 21 C-1.0625 21.625 -1.0625 21.625 -4 22 C-4 21.34 -4 20.68 -4 20 C-3.01 19.67 -2.02 19.34 -1 19 C-1 17.68 -1 16.36 -1 15 C-1.99 15 -2.98 15 -4 15 C-4 14.34 -4 13.68 -4 13 C-3.34 13 -2.68 13 -2 13 C-2 11.02 -2 9.04 -2 7 C-2.66 7 -3.32 7 -4 7 C-4.33 7.66 -4.66 8.32 -5 9 C-5 6.36 -5 3.72 -5 1 C-4.67 1.66 -4.34 2.32 -4 3 C-3.01 2.67 -2.02 2.34 -1 2 C-0.67 1.34 -0.34 0.68 0 0 Z " fill="#E3C462" transform="translate(401,104)"/>
<path d="M0 0 C0.89130413 2.6739124 1.47731534 5.23723823 2 8 C0.68 8 -0.64 8 -2 8 C-2 9.32 -2 10.64 -2 12 C-1.34 12 -0.68 12 0 12 C0.33 13.32 0.66 14.64 1 16 C0.01 16.33 -0.98 16.66 -2 17 C-2.33 16.34 -2.66 15.68 -3 15 C-3.66 15 -4.32 15 -5 15 C-4.67 17.31 -4.34 19.62 -4 22 C-2.68 21.67 -1.36 21.34 0 21 C-0.66 21.33 -1.32 21.66 -2 22 C-1.79375 22.61875 -1.5875 23.2375 -1.375 23.875 C-1.25125 24.57625 -1.1275 25.2775 -1 26 C-3.35953094 28.35953094 -4.77895617 28.49141413 -8 29 C-7.67 26.36 -7.34 23.72 -7 21 C-7.99 21.33 -8.98 21.66 -10 22 C-10 22.99 -10 23.98 -10 25 C-11.65 25.66 -13.3 26.32 -15 27 C-15 27.99 -15 28.98 -15 30 C-14.34 30 -13.68 30 -13 30 C-12.53807875 34.92715996 -14.1724717 38.50732625 -16 43 C-16.495 41.515 -16.495 41.515 -17 40 C-16.67 39.34 -16.34 38.68 -16 38 C-16.99 38.495 -16.99 38.495 -18 39 C-17.814375 40.11375 -17.62875 41.2275 -17.4375 42.375 C-17 46 -17 46 -18 48 C-19.97888961 48.72693904 -21.97954558 49.39816251 -24 50 C-24 47.69 -24 45.38 -24 43 C-24.33 43 -24.66 43 -25 43 C-24.98259766 42.07767578 -24.98259766 42.07767578 -24.96484375 41.13671875 C-24.95582031 40.32847656 -24.94679688 39.52023438 -24.9375 38.6875 C-24.92589844 37.88699219 -24.91429687 37.08648437 -24.90234375 36.26171875 C-24.90342145 33.83138666 -24.90342145 33.83138666 -26 31 C-24.99224246 28.70001282 -23.95025355 26.65479046 -22.6875 24.5 C-22.32720703 23.87996094 -21.96691406 23.25992188 -21.59570312 22.62109375 C-16.09332771 13.49108752 -8.90812669 5.8972794 0 0 Z " fill="#D0AF51" transform="translate(418,20)"/>
<path d="M0 0 C0.66 0 1.32 0 2 0 C4.4294516 3.6441774 4.16179575 5.71241272 4 10 C-4.78419758 14.64008429 -13.16558696 19.0598777 -23 21 C-24.093125 21.226875 -25.18625 21.45375 -26.3125 21.6875 C-41.16216216 22.94594595 -41.16216216 22.94594595 -47 21 C-47.33 19.02 -47.66 17.04 -48 15 C-43.71885248 12.96415098 -39.59327892 12.57067242 -34.9375 12.1875 C-26.63131948 11.36341379 -18.60158061 9.5752683 -11.86328125 4.33984375 C-10 3 -10 3 -7 3 C-7 3.66 -7 4.32 -7 5 C-6.01 5.33 -5.02 5.66 -4 6 C-2.3125 7.5625 -2.3125 7.5625 -1 9 C-0.67 8.01 -0.34 7.02 0 6 C0.66 6 1.32 6 2 6 C2 5.01 2 4.02 2 3 C1.34 3 0.68 3 0 3 C0 2.01 0 1.02 0 0 Z " fill="#F2E07D" transform="translate(500,152)"/>
<path d="M0 0 C1.875 0.3125 1.875 0.3125 4 1 C4.66 1.99 5.32 2.98 6 4 C6.51046875 4.4640625 7.0209375 4.928125 7.546875 5.40625 C9.35083725 7.38478925 9.711372 8.8937355 10.25 11.5 C10.42015625 12.2734375 10.5903125 13.046875 10.765625 13.84375 C11 16 11 16 10 19 C10.33 19.33 10.66 19.66 11 20 C11.04092937 22.33297433 11.04241723 24.66705225 11 27 C11.66 27 12.32 27 13 27 C13 27.99 13 28.98 13 30 C12.34 30 11.68 30 11 30 C10.855625 31.051875 10.71125 32.10375 10.5625 33.1875 C10.12473034 36.15460549 9.62195134 39.06794366 9 42 C8.34 40.68 7.68 39.36 7 38 C6.01 38.66 5.02 39.32 4 40 C4 39.01 4 38.02 4 37 C2.35 36.67 0.7 36.34 -1 36 C-1.48181362 33.02124032 -1.96050857 30.04203251 -2.4375 27.0625 C-2.57220703 26.23169922 -2.70691406 25.40089844 -2.84570312 24.54492188 C-3.24658568 22.03207269 -3.62916116 19.51745341 -4 17 C-4.12616699 16.1536499 -4.25233398 15.3072998 -4.38232422 14.43530273 C-4.48947754 13.63165283 -4.59663086 12.82800293 -4.70703125 12 C-4.80604736 11.27941406 -4.90506348 10.55882812 -5.00708008 9.81640625 C-5 8 -5 8 -3.25 5.9375 C-1 5 -1 5 2 5 C1.34 3.35 0.68 1.7 0 0 Z " fill="#F8F193" transform="translate(517,47)"/>
<path d="M0 0 C2.475 0.495 2.475 0.495 5 1 C5 2.32 5 3.64 5 5 C4.34 5 3.68 5 3 5 C3 5.66 3 6.32 3 7 C5.475 7.495 5.475 7.495 8 8 C7.67 8.99 7.34 9.98 7 11 C7.66 11 8.32 11 9 11 C9.828125 13.6640625 9.828125 13.6640625 10 17 C8.26841529 19.17983181 6.85412172 20.64680077 4.75 22.375 C4.24597656 22.82488281 3.74195313 23.27476562 3.22265625 23.73828125 C-0.55459252 27 -0.55459252 27 -4 27 C-3.9690625 25.6078125 -3.9690625 25.6078125 -3.9375 24.1875 C-3.84230396 20.97713989 -3.84230396 20.97713989 -5 18 C-5.66 18 -6.32 18 -7 18 C-7 18.99 -7 19.98 -7 21 C-6.34 21 -5.68 21 -5 21 C-4.75 23.3125 -4.75 23.3125 -5 26 C-7 27.8125 -7 27.8125 -9 29 C-11.24027294 26.11964908 -13.16172132 23.15133488 -15 20 C-14.25556641 19.34257812 -14.25556641 19.34257812 -13.49609375 18.671875 C-7.58741074 13.15560927 -3.7890944 7.10455201 0 0 Z " fill="#F6E885" transform="translate(507,134)"/>
<path d="M0 0 C1.65 0 3.3 0 5 0 C4.34 1.65 3.68 3.3 3 5 C3.99 5 4.98 5 6 5 C7.26169844 14.93587522 7.26169844 14.93587522 6 18 C2.9375 19.75 2.9375 19.75 0 21 C0 21.33 0 21.66 0 22 C-1 25 -1 25 -4 27 C-5.98 27 -7.96 27 -10 27 C-9.67 18.75 -9.34 10.5 -9 2 C-7.35 2 -5.7 2 -4 2 C-3.67 2.99 -3.34 3.98 -3 5 C-2.34 5 -1.68 5 -1 5 C-0.67 3.35 -0.34 1.7 0 0 Z " fill="#DBB957" transform="translate(10,141)"/>
<path d="M0 0 C-0.10991566 3.10489399 -0.24053415 6.20857994 -0.375 9.3125 C-0.42140625 10.63411133 -0.42140625 10.63411133 -0.46875 11.98242188 C-0.50742187 12.82998047 -0.54609375 13.67753906 -0.5859375 14.55078125 C-0.6173584 15.33106689 -0.6487793 16.11135254 -0.68115234 16.9152832 C-1 19 -1 19 -3 22 C-3.38499891 23.65549531 -3.72793135 25.3222433 -4 27 C-6.64 26.67 -9.28 26.34 -12 26 C-12 28.64 -12 31.28 -12 34 C-12.99 33.67 -13.98 33.34 -15 33 C-16.12516085 34.83284443 -16.12516085 34.83284443 -17 37 C-16.67 37.99 -16.34 38.98 -16 40 C-15.34 40 -14.68 40 -14 40 C-14 40.99 -14 41.98 -14 43 C-17.465 43.495 -17.465 43.495 -21 44 C-20.01 44.33 -19.02 44.66 -18 45 C-18 45.66 -18 46.32 -18 47 C-19.98 47.495 -19.98 47.495 -22 48 C-23.585869 44.828262 -23.37866445 41.36486178 -23.5625 37.875 C-23.60568359 37.12089844 -23.64886719 36.36679687 -23.69335938 35.58984375 C-23.7994832 33.72678112 -23.90025001 31.86341476 -24 30 C-23.34 30.33 -22.68 30.66 -22 31 C-22.33 31.66 -22.66 32.32 -23 33 C-22.34 33 -21.68 33 -21 33 C-21 32.01 -21 31.02 -21 30 C-20.38125 29.814375 -19.7625 29.62875 -19.125 29.4375 C-16.64119991 28.08994304 -16.64119991 28.08994304 -16.0625 24.6875 C-14.85446095 20.49489388 -13.24817659 18.82078493 -10 16 C-9.401875 16.33 -8.80375 16.66 -8.1875 17 C-5.94613529 18.20787988 -5.94613529 18.20787988 -3 18 C-2.67 16.35 -2.34 14.7 -2 13 C-2.66 13 -3.32 13 -4 13 C-4 13.66 -4 14.32 -4 15 C-4.66 15 -5.32 15 -6 15 C-6.62457273 11.56484998 -7 8.50935186 -7 5 C-6.01 5 -5.02 5 -4 5 C-4.33 4.01 -4.66 3.02 -5 2 C-2 0 -2 0 0 0 Z " fill="#E2C462" transform="translate(267,11)"/>
<path d="M0 0 C-0.33 2.31 -0.66 4.62 -1 7 C-0.67 6.67 -0.34 6.34 0 6 C0.99 5.67 1.98 5.34 3 5 C2.45345859 10.87532014 0.77074879 16.20716018 -1.01171875 21.8203125 C-2.16197885 25.52114933 -3.11265714 29.22879285 -4 33 C-4.78375 32.979375 -5.5675 32.95875 -6.375 32.9375 C-8.98114961 32.81315937 -8.98114961 32.81315937 -11 34 C-10.34 32.02 -9.68 30.04 -9 28 C-9.928125 28.2475 -9.928125 28.2475 -10.875 28.5 C-13 29 -13 29 -15 29 C-15 28.34 -15 27.68 -15 27 C-14.01 27 -13.02 27 -12 27 C-12.33 23.37 -12.66 19.74 -13 16 C-12.01 16.33 -11.02 16.66 -10 17 C-10 17.99 -10 18.98 -10 20 C-8.515 14.555 -8.515 14.555 -7 9 C-7.99 9.33 -8.98 9.66 -10 10 C-9.67 8.35 -9.34 6.7 -9 5 C-7.35 4.67 -5.7 4.34 -4 4 C-4 3.01 -4 2.02 -4 1 C-4.99 0.67 -5.98 0.34 -7 0 C-3.86650268 -1.04449911 -3.01031744 -0.93423645 0 0 Z " fill="#DDBC5C" transform="translate(412,41)"/>
<path d="M0 0 C24.64939024 3.64939024 24.64939024 3.64939024 32 11 C32.71927295 13.31765729 33.3909893 15.65095874 34 18 C33.34 18 32.68 18 32 18 C32 18.66 32 19.32 32 20 C32.99 19.67 33.98 19.34 35 19 C35 19.66 35 20.32 35 21 C34.34 21 33.68 21 33 21 C33 21.66 33 22.32 33 23 C31.35 22.67 29.7 22.34 28 22 C28 21.01 28 20.02 28 19 C28.66 19 29.32 19 30 19 C30 17.02 30 15.04 30 13 C29.195625 12.87625 28.39125 12.7525 27.5625 12.625 C26.716875 12.41875 25.87125 12.2125 25 12 C24.67 11.34 24.34 10.68 24 10 C22.35 10.33 20.7 10.66 19 11 C19 11.66 19 12.32 19 13 C19.66 13.33 20.32 13.66 21 14 C20.01 14.33 19.02 14.66 18 15 C17.34 15.66 16.68 16.32 16 17 C15.45730469 16.72285156 14.91460937 16.44570313 14.35546875 16.16015625 C13.64003906 15.79792969 12.92460937 15.43570312 12.1875 15.0625 C11.12595703 14.52302734 11.12595703 14.52302734 10.04296875 13.97265625 C7.88189715 12.89269484 7.88189715 12.89269484 5 12 C4 5.25 4 5.25 4 3 C3.01 3.495 3.01 3.495 2 4 C2 3.34 2 2.68 2 2 C1.34 2 0.68 2 0 2 C0 2.66 0 3.32 0 4 C-0.66 4 -1.32 4 -2 4 C-1.34 2.68 -0.68 1.36 0 0 Z " fill="#EED672" transform="translate(472,9)"/>
<path d="M0 0 C1.63001953 0.02707031 1.63001953 0.02707031 3.29296875 0.0546875 C4.54013672 0.08949219 4.54013672 0.08949219 5.8125 0.125 C5.1525 1.445 4.4925 2.765 3.8125 4.125 C4.4725 4.125 5.1325 4.125 5.8125 4.125 C5.8125 3.465 5.8125 2.805 5.8125 2.125 C7.1325 2.125 8.4525 2.125 9.8125 2.125 C10.4725 2.785 11.1325 3.445 11.8125 4.125 C11.4375 6.625 11.4375 6.625 10.8125 9.125 C10.8125 9.785 10.8125 10.445 10.8125 11.125 C9.69875 10.96128906 8.585 10.79757813 7.4375 10.62890625 C2.55270485 10.01830686 -2.27145145 10.01341503 -7.1875 10.0625 C-8.05761719 10.06701172 -8.92773438 10.07152344 -9.82421875 10.07617188 C-11.94534293 10.0878264 -14.0664311 10.10575643 -16.1875 10.125 C-16.1875 7.815 -16.1875 5.505 -16.1875 3.125 C-11.4375 2.125 -11.4375 2.125 -9.1875 2.125 C-5.66070901 -0.22619399 -4.15870515 -0.08943452 0 0 Z " fill="#E2C664" transform="translate(466.1875,8.875)"/>
<path d="M0 0 C7.6875 0.5 7.6875 0.5 10.08081055 0.65820312 C13.7269546 0.89055318 17.34645282 1.05764966 21 1 C21 2.32 21 3.64 21 5 C20.01 5.33 19.02 5.66 18 6 C18 6.99 18 7.98 18 9 C16.68 8.67 15.36 8.34 14 8 C14 9.65 14 11.3 14 13 C13.34 13 12.68 13 12 13 C12 14.32 12 15.64 12 17 C10.68 16.67 9.36 16.34 8 16 C8.66 15.67 9.32 15.34 10 15 C10.33 14.01 10.66 13.02 11 12 C10.67 12.33 10.34 12.66 10 13 C9.34 13.66 8.68 14.32 8 15 C7.67 14.34 7.34 13.68 7 13 C6.34 13 5.68 13 5 13 C4.67 13.99 4.34 14.98 4 16 C3.01 16.33 2.02 16.66 1 17 C0.67 11.39 0.34 5.78 0 0 Z " fill="#EDD470" transform="translate(242,11)"/>
<path d="M0 0 C0.33 0.99 0.66 1.98 1 3 C2.32 2.67 3.64 2.34 5 2 C5 1.34 5 0.68 5 0 C5.66 0 6.32 0 7 0 C7 4.62 7 9.24 7 14 C7.66 13.67 8.32 13.34 9 13 C9 15.97 9 18.94 9 22 C9.66 22 10.32 22 11 22 C11 22.66 11 23.32 11 24 C9.68 24 8.36 24 7 24 C7 23.34 7 22.68 7 22 C6.01 22 5.02 22 4 22 C3.67 20.68 3.34 19.36 3 18 C3 18.99 3 19.98 3 21 C1.35 21.66 -0.3 22.32 -2 23 C-2.05413245 20.10391407 -2.09373641 17.20884805 -2.125 14.3125 C-2.14175781 13.49587891 -2.15851563 12.67925781 -2.17578125 11.83789062 C-2.2114802 7.42907071 -2.07580814 4.01268424 0 0 Z M4 15 C4.66 15.66 5.32 16.32 6 17 C6 16.34 6 15.68 6 15 C5.34 15 4.68 15 4 15 Z " fill="#DBBA58" transform="translate(246,61)"/>
<path d="M0 0 C1.46373047 0.02707031 1.46373047 0.02707031 2.95703125 0.0546875 C3.69308594 0.07789063 4.42914063 0.10109375 5.1875 0.125 C5.1875 0.785 5.1875 1.445 5.1875 2.125 C5.8475 2.455 6.5075 2.785 7.1875 3.125 C7.1875 2.465 7.1875 1.805 7.1875 1.125 C9.1675 1.125 11.1475 1.125 13.1875 1.125 C13 4 13 4 12.1875 7.125 C8.20554981 9.36346179 4.55878349 9.36500437 0.0625 9.3125 C-1.15695312 9.30605469 -2.37640625 9.29960937 -3.6328125 9.29296875 C-6.8125 9.125 -6.8125 9.125 -9.8125 8.125 C-10.1425 6.145 -10.4725 4.165 -10.8125 2.125 C-7.04027911 0.37336544 -4.145861 -0.09990027 0 0 Z " fill="#EDD671" transform="translate(462.8125,164.875)"/>
<path d="M0 0 C0.66 0 1.32 0 2 0 C2 8.58 2 17.16 2 26 C1.34 26 0.68 26 0 26 C-0.33 25.34 -0.66 24.68 -1 24 C-1.66 24.66 -2.32 25.32 -3 26 C-3.99 25.67 -4.98 25.34 -6 25 C-6 24.34 -6 23.68 -6 23 C-5.34 23 -4.68 23 -4 23 C-4 21.35 -4 19.7 -4 18 C-4.66 18 -5.32 18 -6 18 C-6 17.34 -6 16.68 -6 16 C-6.66 16 -7.32 16 -8 16 C-8.625 14.1875 -8.625 14.1875 -9 12 C-8.34 11.01 -7.68 10.02 -7 9 C-6.01 9.33 -5.02 9.66 -4 10 C-4.66 10 -5.32 10 -6 10 C-6 10.66 -6 11.32 -6 12 C-4.35 12.33 -2.7 12.66 -1 13 C-1.33 11.35 -1.66 9.7 -2 8 C-3.65 8 -5.3 8 -7 8 C-7 7.34 -7 6.68 -7 6 C-6.01 5.67 -5.02 5.34 -4 5 C-4.66 4.34 -5.32 3.68 -6 3 C-5.34 3 -4.68 3 -4 3 C-3.67 2.34 -3.34 1.68 -3 1 C-3 1.66 -3 2.32 -3 3 C-2.34 3 -1.68 3 -1 3 C-0.67 2.01 -0.34 1.02 0 0 Z " fill="#D7B655" transform="translate(263,51)"/>
<path d="M0 0 C0.99 -0.33 1.98 -0.66 3 -1 C5.1875 0.4375 5.1875 0.4375 7 2 C5.1875 3.0625 5.1875 3.0625 3 4 C2.01 3.67 1.02 3.34 0 3 C-0.99 3.99 -1.98 4.98 -3 6 C-3 3 -3 3 -2 2 C-2.99 2 -3.98 2 -5 2 C-4.67 4.97 -4.34 7.94 -4 11 C-5.65 11 -7.3 11 -9 11 C-8.67 12.65 -8.34 14.3 -8 16 C-8.99 16 -9.98 16 -11 16 C-11.33 16.66 -11.66 17.32 -12 18 C-12.66 18 -13.32 18 -14 18 C-14 17.01 -14 16.02 -14 15 C-14.66 15 -15.32 15 -16 15 C-16 13.68 -16 12.36 -16 11 C-14.68 11 -13.36 11 -12 11 C-12.66 9.02 -13.32 7.04 -14 5 C-9.18907786 -0.15455943 -6.9716023 -1.33498767 0 0 Z " fill="#DBBA5A" transform="translate(432,17)"/>
<path d="M0 0 C3.51657146 0.1882793 4.84824945 0.85886476 7.45703125 3.28515625 C8.23433594 4.20167969 9.01164062 5.11820312 9.8125 6.0625 C10.99779297 7.44115234 10.99779297 7.44115234 12.20703125 8.84765625 C12.79871094 9.55792969 13.39039063 10.26820312 14 11 C12.79180633 14.624581 12.19658087 14.40170957 9 16 C8.67 16.99 8.34 17.98 8 19 C6 18 6 18 4 16 C3.34 16.33 2.68 16.66 2 17 C1.34 16.67 0.68 16.34 0 16 C-0.33 16.99 -0.66 17.98 -1 19 C-1.66 18.67 -2.32 18.34 -3 18 C-2.67 17.34 -2.34 16.68 -2 16 C-2.66 15.67 -3.32 15.34 -4 15 C-3.67 14.34 -3.34 13.68 -3 13 C-0.67843403 12.59270772 1.6568787 12.25561323 4 12 C3.175 11.29875 2.35 10.5975 1.5 9.875 C-1 7 -1 7 -1.375 3.75 C-1 1 -1 1 0 0 Z " fill="#C7A247" transform="translate(285,86)"/>
<path d="M0 0 C0.66 0 1.32 0 2 0 C4.5132982 2.5132982 4 3.62447307 4 7 C5.65 6.67 7.3 6.34 9 6 C9.33 11.61 9.66 17.22 10 23 C9.01 23 8.02 23 7 23 C6.67 21.35 6.34 19.7 6 18 C2.9254644 18.7763932 2.9254644 18.7763932 1 21 C0.01 20.01 -0.98 19.02 -2 18 C-1.67 17.01 -1.34 16.02 -1 15 C-0.01 15 0.98 15 2 15 C1.87625 13.700625 1.7525 12.40125 1.625 11.0625 C1.55539062 10.33160156 1.48578125 9.60070312 1.4140625 8.84765625 C1.20910156 7.93306641 1.20910156 7.93306641 1 7 C0.34 6.67 -0.32 6.34 -1 6 C-1.66 7.32 -2.32 8.64 -3 10 C-2.25 2.25 -2.25 2.25 0 0 Z " fill="#D9B857" transform="translate(398,87)"/>
<path d="M0 0 C0.99 0 1.98 0 3 0 C3 0.99 3 1.98 3 3 C3.66 2.01 4.32 1.02 5 0 C6.65 0.66 8.3 1.32 10 2 C10 2.66 10 3.32 10 4 C8.35 4.33 6.7 4.66 5 5 C5.33 5.99 5.66 6.98 6 8 C5.25234375 8.72445313 4.5046875 9.44890625 3.734375 10.1953125 C2.7393131 11.17159965 1.74453663 12.14817777 0.75 13.125 C0.25886719 13.599375 -0.23226563 14.07375 -0.73828125 14.5625 C-3.23042706 17.0214172 -5.35630918 19.40374598 -7.234375 22.3671875 C-8.10835938 23.67042969 -8.10835938 23.67042969 -9 25 C-9.66 25 -10.32 25 -11 25 C-11.33 24.34 -11.66 23.68 -12 23 C-12.66 23.99 -13.32 24.98 -14 26 C-14 22.7 -14 19.4 -14 16 C-13.34 16 -12.68 16 -12 16 C-11.67 15.34 -11.34 14.68 -11 14 C-11 15.32 -11 16.64 -11 18 C-9.824375 16.7625 -9.824375 16.7625 -8.625 15.5 C-6 13 -6 13 -4 13 C-3.67 12.01 -3.34 11.02 -3 10 C-3.66 9.67 -4.32 9.34 -5 9 C-2 8 -2 8 1 9 C0.67 6.03 0.34 3.06 0 0 Z " fill="#E2C563" transform="translate(427,19)"/>
<path d="M0 0 C2.56687367 3.8503105 1.83288724 5.58569763 1 10 C-0.32 10 -1.64 10 -3 10 C-3 11.32 -3 12.64 -3 14 C-1.68 14 -0.36 14 1 14 C1.33 13.34 1.66 12.68 2 12 C2 14.97 2 17.94 2 21 C1.01 20.01 0.02 19.02 -1 18 C-1.66 18.33 -2.32 18.66 -3 19 C-3.40729228 21.32156597 -3.74438677 23.6568787 -4 26 C-7.76236047 20.3564593 -8.39363432 13.69178348 -8 7 C-7.5 4.5625 -7.5 4.5625 -7 3 C-6.01 3 -5.02 3 -4 3 C-4 2.34 -4 1.68 -4 1 C-2.68 0.67 -1.36 0.34 0 0 Z " fill="#D2B151" transform="translate(394,98)"/>
<path d="M0 0 C0.66 0 1.32 0 2 0 C2 1.98 2 3.96 2 6 C2.99 6.33 3.98 6.66 5 7 C5.33 6.01 5.66 5.02 6 4 C6.66 4.33 7.32 4.66 8 5 C7.67 5.66 7.34 6.32 7 7 C6.32650839 8.66392045 5.6590841 10.33032028 5 12 C5.66 12 6.32 12 7 12 C7 14.31 7 16.62 7 19 C6.7525 18.360625 6.505 17.72125 6.25 17.0625 C5.18437567 14.81258459 5.18437567 14.81258459 2.875 14.25 C2.25625 14.1675 1.6375 14.085 1 14 C0.67 15.65 0.34 17.3 0 19 C0.763125 18.95875 1.52625 18.9175 2.3125 18.875 C5 19 5 19 8 21 C7.34 22.32 6.68 23.64 6 25 C-1.50128271 20.08055413 -1.50128271 20.08055413 -3.5 15.75 C-4 13 -4 13 -4 11 C-3.01 11 -2.02 11 -1 11 C-1 10.01 -1 9.02 -1 8 C-1.66 8.66 -2.32 9.32 -3 10 C-2.67 7.36 -2.34 4.72 -2 2 C-1.34 2 -0.68 2 0 2 C0 1.34 0 0.68 0 0 Z " fill="#DEC05D" transform="translate(413,138)"/>
<path d="M0 0 C5.49997587 0.41249819 9.92300243 2.30638982 14 6 C15.22269229 8.42032941 15.57339129 10.2803695 16 13 C15.34 13 14.68 13 14 13 C14 13.66 14 14.32 14 15 C14.99 14.67 15.98 14.34 17 14 C17 14.66 17 15.32 17 16 C16.34 16 15.68 16 15 16 C15 16.66 15 17.32 15 18 C13.35 17.67 11.7 17.34 10 17 C10 16.01 10 15.02 10 14 C10.66 14 11.32 14 12 14 C12 12.02 12 10.04 12 8 C10.7934375 7.814375 10.7934375 7.814375 9.5625 7.625 C8.716875 7.41875 7.87125 7.2125 7 7 C6.67 6.34 6.34 5.68 6 5 C4.35 5.33 2.7 5.66 1 6 C1 6.66 1 7.32 1 8 C1.66 8.33 2.32 8.66 3 9 C2.01 9.33 1.02 9.66 0 10 C-0.66 10.66 -1.32 11.32 -2 12 C-2.66 11.34 -3.32 10.68 -4 10 C-3 7 -3 7 -2 6 C-2 4.68 -2 3.36 -2 2 C-1.34 2 -0.68 2 0 2 C0 1.34 0 0.68 0 0 Z " fill="#EFDF7D" transform="translate(490,14)"/>
<path d="M0 0 C0.33 1.32 0.66 2.64 1 4 C1.66 4 2.32 4 3 4 C3.33 2.68 3.66 1.36 4 0 C8.75 0.75 8.75 0.75 11 3 C11 4.65 11 6.3 11 8 C-0.385 7.505 -0.385 7.505 -12 7 C-11.34 5.35 -10.68 3.7 -10 2 C-9.67 2.66 -9.34 3.32 -9 4 C-7.68 4 -6.36 4 -5 4 C-5 3.34 -5 2.68 -5 2 C-2 0 -2 0 0 0 Z " fill="#D6B553" transform="translate(349,162)"/>
<path d="M0 0 C1.32 0.66 2.64 1.32 4 2 C4.66 1.34 5.32 0.68 6 0 C9.93673644 1.31224548 12.22719294 2.91910327 15 6 C13.8787787 8.24244261 12.97380807 9.4491508 11 11 C8.3125 11.1875 8.3125 11.1875 6 11 C6 10.01 6 9.02 6 8 C7.65 8 9.3 8 11 8 C10.195625 7.855625 9.39125 7.71125 8.5625 7.5625 C6 7 6 7 5 6 C5 7.32 5 8.64 5 10 C2.21788056 9.62403791 0.4120716 9.32681541 -1.8125 7.5625 C-3 6 -3 6 -3 4 C-1.68 3.34 -0.36 2.68 1 2 C0.67 1.34 0.34 0.68 0 0 Z " fill="#D1AC51" transform="translate(297,119)"/>
<path d="M0 0 C2.97 0 5.94 0 9 0 C9 1.98 9 3.96 9 6 C10.65 6.33 12.3 6.66 14 7 C14 7.66 14 8.32 14 9 C11.03 9 8.06 9 5 9 C4.67 10.65 4.34 12.3 4 14 C3.01 14 2.02 14 1 14 C-0.38226016 11.23547967 -0.09525387 8.9538637 -0.0625 5.875 C-0.05347656 4.77929688 -0.04445312 3.68359375 -0.03515625 2.5546875 C-0.02355469 1.71164062 -0.01195312 0.86859375 0 0 Z " fill="#F3DB74" transform="translate(152,12)"/>
<path d="M0 0 C3.875 0.875 3.875 0.875 5 2 C5.33 1.34 5.66 0.68 6 0 C6.66 0.33 7.32 0.66 8 1 C8 2.32 8 3.64 8 5 C9.65 5 11.3 5 13 5 C13.33 4.01 13.66 3.02 14 2 C14.33 3.65 14.66 5.3 15 7 C14.67 7 14.34 7 14 7 C13.67 9.64 13.34 12.28 13 15 C10.69 14.01 8.38 13.02 6 12 C6 10.35 6 8.7 6 7 C5.34 7 4.68 7 4 7 C4 6.34 4 5.68 4 5 C3.01 5.33 2.02 5.66 1 6 C0.34 5.67 -0.32 5.34 -1 5 C-0.67 3.35 -0.34 1.7 0 0 Z " fill="#EBCE6B" transform="translate(414,152)"/>
<path d="M0 0 C0.33 0.99 0.66 1.98 1 3 C1.66 3 2.32 3 3 3 C3 2.01 3 1.02 3 0 C3.99 0.33 4.98 0.66 6 1 C5.34 1 4.68 1 4 1 C4 1.99 4 2.98 4 4 C4.99 3.67 5.98 3.34 7 3 C6.67 5.31 6.34 7.62 6 10 C3 9 3 9 2 8 C1.67 8.66 1.34 9.32 1 10 C1.66 10 2.32 10 3 10 C3 10.99 3 11.98 3 13 C2.01 12.67 1.02 12.34 0 12 C0 11.34 0 10.68 0 10 C-0.66 10 -1.32 10 -2 10 C-2 10.99 -2 11.98 -2 13 C-2.66 13 -3.32 13 -4 13 C-4 11.02 -4 9.04 -4 7 C-4.66 6.67 -5.32 6.34 -6 6 C-4.02 5.67 -2.04 5.34 0 5 C0 3.35 0 1.7 0 0 Z " fill="#CAA749" transform="translate(253,126)"/>
<path d="M0 0 C2.97 0.495 2.97 0.495 6 1 C5.67 1.66 5.34 2.32 5 3 C4.34 3 3.68 3 3 3 C3 3.66 3 4.32 3 5 C5.60582371 5.93065133 6.64198224 6.14917407 9.25 5.0625 C9.8275 4.711875 10.405 4.36125 11 4 C12.4783226 6.95664519 12.06032783 9.74229737 12 13 C11.34 12.34 10.68 11.68 10 11 C9.01 11.495 9.01 11.495 8 12 C7.67 11.34 7.34 10.68 7 10 C5.68 9.67 4.36 9.34 3 9 C3 11.97 3 14.94 3 18 C2.67 18 2.34 18 2 18 C1.67 14.7 1.34 11.4 1 8 C0.67 8 0.34 8 0 8 C0 5.36 0 2.72 0 0 Z " fill="#CBA949" transform="translate(244,93)"/>
<path d="M0 0 C0.33 0.66 0.66 1.32 1 2 C1.66 2 2.32 2 3 2 C3.33 1.34 3.66 0.68 4 0 C3.67 1.65 3.34 3.3 3 5 C3.99 5 4.98 5 6 5 C6.33 6.65 6.66 8.3 7 10 C5.5882217 10.53394179 4.17029756 11.05165104 2.75 11.5625 C1.96109375 11.85253906 1.1721875 12.14257812 0.359375 12.44140625 C-2.19103452 13.04522837 -3.55322229 12.8473932 -6 12 C-5.25 10.0625 -5.25 10.0625 -4 8 C-1.875 7.25 -1.875 7.25 0 7 C-0.185625 6.030625 -0.37125 5.06125 -0.5625 4.0625 C-0.706875 3.051875 -0.85125 2.04125 -1 1 C-0.67 0.67 -0.34 0.34 0 0 Z " fill="#EDD975" transform="translate(484,159)"/>
<path d="M0 0 C0.66 0.33 1.32 0.66 2 1 C2 1.66 2 2.32 2 3 C2.66 3.33 3.32 3.66 4 4 C4 5.65 4 7.3 4 9 C6.75383923 7.62308038 7.51483101 5.63279958 9 3 C10.31225809 6.93677426 9.3393954 8.7794262 8.0625 12.6875 C7.49208984 14.45673828 7.49208984 14.45673828 6.91015625 16.26171875 C6.45962891 17.61716797 6.45962891 17.61716797 6 19 C4 16 4 16 4 13 C3.0409375 12.8453125 3.0409375 12.8453125 2.0625 12.6875 C1.381875 12.460625 0.70125 12.23375 0 12 C-0.33 11.01 -0.66 10.02 -1 9 C-0.67 8.67 -0.34 8.34 0 8 C0.04384447 6.33391013 0.0396713 4.66619446 0 3 C0 2.01 0 1.02 0 0 Z " fill="#D7B756" transform="translate(404,47)"/>
<path d="M0 0 C0.66 0 1.32 0 2 0 C1.67 1.32 1.34 2.64 1 4 C1.66 4 2.32 4 3 4 C3 3.01 3 2.02 3 1 C3.99 1 4.98 1 6 1 C6.08121924 2.60332791 6.13929134 4.20784026 6.1875 5.8125 C6.22230469 6.70582031 6.25710938 7.59914063 6.29296875 8.51953125 C6 11 6 11 4.61328125 12.82421875 C3 14 3 14 1 14 C1.020625 13.071875 1.04125 12.14375 1.0625 11.1875 C1.15769604 7.97713989 1.15769604 7.97713989 0 5 C-0.99 5.33 -1.98 5.66 -3 6 C-3 4.35 -3 2.7 -3 1 C-2.01 1.33 -1.02 1.66 0 2 C0 1.34 0 0.68 0 0 Z " fill="#E3C261" transform="translate(259,40)"/>
<path d="M0 0 C1 3 1 3 1 7 C1.66 7 2.32 7 3 7 C3 7.99 3 8.98 3 10 C0.69 10.33 -1.62 10.66 -4 11 C-3.01 11.33 -2.02 11.66 -1 12 C-1 12.66 -1 13.32 -1 14 C-2.32 14.33 -3.64 14.66 -5 15 C-6.28571429 7.57142857 -6.28571429 7.57142857 -5 4 C-4.34 4 -3.68 4 -3 4 C-3 3.01 -3 2.02 -3 1 C-2.01 0.67 -1.02 0.34 0 0 Z " fill="#ECCF6B" transform="translate(250,44)"/>
<path d="M0 0 C3.30624582 0.2449071 4.29042449 1.27722338 6.75 3.625 C9.41830608 6.98690246 9.42559968 9.74400319 9 14 C7.68 13.67 6.36 13.34 5 13 C5 12.01 5 11.02 5 10 C4.34 9.67 3.68 9.34 3 9 C1.31337542 7.35353315 -0.35511706 5.68816933 -2 4 C-1.34 4 -0.68 4 0 4 C0 2.68 0 1.36 0 0 Z " fill="#CFAA4F" transform="translate(313,116)"/>
<path d="M0 0 C0.66 0 1.32 0 2 0 C4.5132982 2.5132982 4 3.62447307 4 7 C5.65 6.67 7.3 6.34 9 6 C8.67 6.99 8.34 7.98 8 9 C6.68 9 5.36 9 4 9 C4 11.31 4 13.62 4 16 C2 14 2 14 1.5 10.4375 C1.335 9.303125 1.17 8.16875 1 7 C0.34 6.67 -0.32 6.34 -1 6 C-1.66 7.32 -2.32 8.64 -3 10 C-2.25 2.25 -2.25 2.25 0 0 Z " fill="#D1B04F" transform="translate(398,87)"/>
<path d="M0 0 C3.625 0.1875 3.625 0.1875 6.625 2.1875 C6.625 2.8475 6.625 3.5075 6.625 4.1875 C7.285 4.5175 7.945 4.8475 8.625 5.1875 C6.975 4.8575 5.325 4.5275 3.625 4.1875 C3.625 3.5275 3.625 2.8675 3.625 2.1875 C2.965 2.1875 2.305 2.1875 1.625 2.1875 C1.625 2.8475 1.625 3.5075 1.625 4.1875 C2.85380216 5.4816742 2.85380216 5.4816742 5.625 7.1875 C4.965 8.8375 4.305 10.4875 3.625 12.1875 C2.635 12.1875 1.645 12.1875 0.625 12.1875 C1.285 11.8575 1.945 11.5275 2.625 11.1875 C2.625 9.8675 2.625 8.5475 2.625 7.1875 C0.975 7.5175 -0.675 7.8475 -2.375 8.1875 C-3.5 4.4375 -3.5 4.4375 -2.375 2.1875 C-3.035 1.8575 -3.695 1.5275 -4.375 1.1875 C-3.375 0.1875 -3.375 0.1875 0 0 Z " fill="#C6A347" transform="translate(343.375,11.8125)"/>
<path d="M0 0 C1.32 0 2.64 0 4 0 C4.66 0.66 5.32 1.32 6 2 C5.625 4.5 5.625 4.5 5 7 C5 7.66 5 8.32 5 9 C2.36 8.67 -0.28 8.34 -3 8 C-4 5 -4 5 -3.0625 2.8125 C-2.5365625 1.9153125 -2.5365625 1.9153125 -2 1 C-1.34 1.33 -0.68 1.66 0 2 C0 1.34 0 0.68 0 0 Z " fill="#E7CF6A" transform="translate(472,11)"/>
<path d="M0 0 C0.99 -0.33 1.98 -0.66 3 -1 C5.1875 0.4375 5.1875 0.4375 7 2 C5.1875 3.0625 5.1875 3.0625 3 4 C2.01 3.67 1.02 3.34 0 3 C-0.99 3.99 -1.98 4.98 -3 6 C-3 3 -3 3 -2 2 C-2.99 2 -3.98 2 -5 2 C-5 3.65 -5 5.3 -5 7 C-5.66 7 -6.32 7 -7 7 C-7.66 5.02 -8.32 3.04 -9 1 C-5.27006781 -1.48662146 -4.23819267 -0.79466113 0 0 Z " fill="#D6B756" transform="translate(432,17)"/>
<path d="M0 0 C1.32 0 2.64 0 4 0 C4.66 2.31 5.32 4.62 6 7 C7.32 6.67 8.64 6.34 10 6 C9.01 6.495 9.01 6.495 8 7 C8.20625 7.61875 8.4125 8.2375 8.625 8.875 C8.74875 9.57625 8.8725 10.2775 9 11 C6.64046906 13.35953094 5.22104383 13.49141413 2 14 C2.33 11.36 2.66 8.72 3 6 C2.01 6.495 2.01 6.495 1 7 C0.67 4.69 0.34 2.38 0 0 Z " fill="#D5B554" transform="translate(408,35)"/>
<path d="M0 0 C0.66 0.33 1.32 0.66 2 1 C2 1.66 2 2.32 2 3 C2.66 3 3.32 3 4 3 C3.67 4.65 3.34 6.3 3 8 C4.65 8 6.3 8 8 8 C7.34 9.32 6.68 10.64 6 12 C4.35 12 2.7 12 1 12 C1 12.66 1 13.32 1 14 C0.34 14 -0.32 14 -1 14 C-1.18451025 4.58997722 -1.18451025 4.58997722 0 0 Z " fill="#D2B050" transform="translate(243,143)"/>
<path d="M0 0 C0.33 0.66 0.66 1.32 1 2 C1.66 2 2.32 2 3 2 C3.33 1.34 3.66 0.68 4 0 C4.33 1.32 4.66 2.64 5 4 C3.02 4.99 3.02 4.99 1 6 C1.5259375 7.6396875 1.5259375 7.6396875 2.0625 9.3125 C3 13 3 13 2 16 C-0.70452381 12.73203373 -1 11.20203536 -1 7 C-2.65 7 -4.3 7 -6 7 C-4.02 4.69 -2.04 2.38 0 0 Z " fill="#D3B154" transform="translate(327,24)"/>
<path d="M0 0 C-1 2 -1 2 -4 4 C-4.99 3.34 -5.98 2.68 -7 2 C-7.33 2.99 -7.66 3.98 -8 5 C-8.33 5 -8.66 5 -9 5 C-9.66 6.98 -10.32 8.96 -11 11 C-12 9 -13 7 -14 5 C-14.66 5 -15.32 5 -16 5 C-16.33 5.66 -16.66 6.32 -17 7 C-16.67 5.68 -16.34 4.36 -16 3 C-15.34 3 -14.68 3 -14 3 C-14 2.34 -14 1.68 -14 1 C-9.23692563 0.04738513 -4.8333472 -0.08333357 0 0 Z " fill="#D5B655" transform="translate(460,9)"/>
<path d="M0 0 C0.99 0.495 0.99 0.495 2 1 C2 1.66 2 2.32 2 3 C3.98 3 5.96 3 8 3 C7.67 5.31 7.34 7.62 7 10 C6.34 10 5.68 10 5 10 C5 10.99 5 11.98 5 13 C5.99 12.67 6.98 12.34 8 12 C8 12.66 8 13.32 8 14 C6.68 14 5.36 14 4 14 C4 13.34 4 12.68 4 12 C3.34 12 2.68 12 2 12 C1.875 6.25 1.875 6.25 3 4 C2.34 4 1.68 4 1 4 C0.67 2.68 0.34 1.36 0 0 Z " fill="#F9EC8A" transform="translate(495,18)"/>
<path d="M0 0 C2.33944736 0.28730055 4.6739143 0.61936779 7 1 C6.67 2.98 6.34 4.96 6 7 C3.69 7.33 1.38 7.66 -1 8 C-1.04241723 5.66705225 -1.04092937 3.33297433 -1 1 C-0.67 0.67 -0.34 0.34 0 0 Z " fill="#EACF6B" transform="translate(451,11)"/>
<path d="M0 0 C0.89130413 2.6739124 1.47731534 5.23723823 2 8 C0.68 8 -0.64 8 -2 8 C-2 8.66 -2 9.32 -2 10 C-3.32 10.33 -4.64 10.66 -6 11 C-5.67 10.34 -5.34 9.68 -5 9 C-5.33 8.67 -5.66 8.34 -6 8 C-5.77496814 4.73703803 -4.95212402 3.95796255 -2.4375 1.75 C-1.633125 1.1725 -0.82875 0.595 0 0 Z " fill="#D4B254" transform="translate(418,20)"/>
<path d="M0 0 C0.66 0 1.32 0 2 0 C2.33 1.65 2.66 3.3 3 5 C-2.625 10 -2.625 10 -6 10 C-5.49259538 5.60249328 -2.91706686 3.13051078 0 0 Z " fill="#D0AD51" transform="translate(338,11)"/>
<path d="M0 0 C1.42944945 2.35438733 2.08661261 3.48032433 1.625 6.25 C1.41875 6.8275 1.2125 7.405 1 8 C-0.65 8.33 -2.3 8.66 -4 9 C-4.625 6.625 -4.625 6.625 -5 4 C-4.34 3.34 -3.68 2.68 -3 2 C-2.01 2 -1.02 2 0 2 C0 1.34 0 0.68 0 0 Z " fill="#DABC5A" transform="translate(400,131)"/>
<path d="M0 0 C1.30913891 2.15622879 2 3.57952098 2 6.125 C1 8 1 8 -2.0625 9.25 C-3.031875 9.4975 -4.00125 9.745 -5 10 C-4.67 7.69 -4.34 5.38 -4 3 C-3.34 3 -2.68 3 -2 3 C-2 2.34 -2 1.68 -2 1 C-1.34 0.67 -0.68 0.34 0 0 Z " fill="#CAA84C" transform="translate(399,60)"/>
<path d="M0 0 C0.66 0 1.32 0 2 0 C2 0.66 2 1.32 2 2 C3.32 1.67 4.64 1.34 6 1 C6 2.65 6 4.3 6 6 C5.01 6 4.02 6 3 6 C2.34 7.32 1.68 8.64 1 10 C0.34 10 -0.32 10 -1 10 C-1 8.68 -1 7.36 -1 6 C-0.01 6 0.98 6 2 6 C2 5.01 2 4.02 2 3 C1.01 3 0.02 3 -1 3 C-1.33 3.66 -1.66 4.32 -2 5 C-2 4.01 -2 3.02 -2 2 C-1.34 2 -0.68 2 0 2 C0 1.34 0 0.68 0 0 Z " fill="#E1BF5B" transform="translate(169,105)"/>
<path d="M0 0 C0 0.99 0 1.98 0 3 C-0.66 3 -1.32 3 -2 3 C-2 4.65 -2 6.3 -2 8 C-3.65 7.01 -5.3 6.02 -7 5 C-6.625 2.5625 -6.625 2.5625 -6 0 C-3.50907189 -1.24546405 -2.58919267 -0.7767578 0 0 Z " fill="#ECD16D" transform="translate(450,164)"/>
<path d="M0 0 C1.32 0.66 2.64 1.32 4 2 C3.67 3.65 3.34 5.3 3 7 C2.01 7.33 1.02 7.66 0 8 C-0.33 7.01 -0.66 6.02 -1 5 C-2.32 5 -3.64 5 -5 5 C-4.67 3.68 -4.34 2.36 -4 1 C-3.67 1.66 -3.34 2.32 -3 3 C-2.01 2.01 -1.02 1.02 0 0 Z " fill="#C7A449" transform="translate(293,65)"/>
<path d="M0 0 C0 2.64 0 5.28 0 8 C-0.598125 8.12375 -1.19625 8.2475 -1.8125 8.375 C-4.26231348 8.95475985 -4.26231348 8.95475985 -7 11 C-7.7109375 9.234375 -7.7109375 9.234375 -8 7 C-6.6015625 5.078125 -6.6015625 5.078125 -4.625 3.25 C-3.97789062 2.63640625 -3.33078125 2.0228125 -2.6640625 1.390625 C-1 0 -1 0 0 0 Z " fill="#D5B356" transform="translate(296,58)"/>
<path d="M0 0 C0.71929687 0.29003906 1.43859375 0.58007812 2.1796875 0.87890625 C2.90414063 1.16636719 3.62859375 1.45382813 4.375 1.75 C4.92929687 1.97816406 5.48359375 2.20632812 6.0546875 2.44140625 C5.7246875 3.43140625 5.3946875 4.42140625 5.0546875 5.44140625 C4.3946875 5.44140625 3.7346875 5.44140625 3.0546875 5.44140625 C2.7246875 6.43140625 2.3946875 7.42140625 2.0546875 8.44140625 C2.0546875 7.45140625 2.0546875 6.46140625 2.0546875 5.44140625 C1.0646875 5.11140625 0.0746875 4.78140625 -0.9453125 4.44140625 C-1.2753125 5.10140625 -1.6053125 5.76140625 -1.9453125 6.44140625 C-2.6053125 6.44140625 -3.2653125 6.44140625 -3.9453125 6.44140625 C-3.9453125 4.44140625 -3.9453125 2.44140625 -3.9453125 0.44140625 C-1.9453125 -0.55859375 -1.9453125 -0.55859375 0 0 Z " fill="#CAA74B" transform="translate(340.9453125,148.55859375)"/>
<path d="M0 0 C1.2509564 3.75286921 1 7.05979136 1 11 C2.32 11.33 3.64 11.66 5 12 C3.68 12.33 2.36 12.66 1 13 C0.67 11.68 0.34 10.36 0 9 C-0.99 9 -1.98 9 -3 9 C-3 8.01 -3 7.02 -3 6 C-3.66 6 -4.32 6 -5 6 C-3.86695008 2.60085025 -2.87481525 1.94745549 0 0 Z " fill="#F8E986" transform="translate(490,155)"/>
<path d="M0 0 C0.33 0.99 0.66 1.98 1 3 C0.67 3.33 0.34 3.66 0 4 C0.66 4.66 1.32 5.32 2 6 C1.34 6 0.68 6 0 6 C-0.33 7.32 -0.66 8.64 -1 10 C-1.66 10 -2.32 10 -3 10 C-3.33 8.68 -3.66 7.36 -4 6 C-4 6.99 -4 7.98 -4 9 C-4.66 9 -5.32 9 -6 9 C-4.83857315 4.64464931 -3.92300495 2.35380297 0 0 Z " fill="#D9B658" transform="translate(260,120)"/>
<path d="M0 0 C1.65 0.33 3.3 0.66 5 1 C6 4 6 4 5.0625 6.1875 C4.5365625 7.0846875 4.5365625 7.0846875 4 8 C3.01 8 2.02 8 1 8 C1 6.68 1 5.36 1 4 C1.99 4 2.98 4 4 4 C4 3.34 4 2.68 4 2 C1.96758273 2.63979849 1.96758273 2.63979849 0 4 C-0.81171228 6.55519921 -0.81171228 6.55519921 -1 9 C-1.33 9 -1.66 9 -2 9 C-2.25 3.375 -2.25 3.375 0 0 Z " fill="#D7B458" transform="translate(320,141)"/>
<path d="M0 0 C0.66 0 1.32 0 2 0 C2.6875 1.75 2.6875 1.75 3 4 C1.5625 6.25 1.5625 6.25 0 8 C0.33 8.66 0.66 9.32 1 10 C-0.65 10 -2.3 10 -4 10 C-4 9.01 -4 8.02 -4 7 C-3.34 6.67 -2.68 6.34 -2 6 C-1.62690101 4.34178227 -1.29299023 2.67422986 -1 1 C-0.67 0.67 -0.34 0.34 0 0 Z " fill="#D7B456" transform="translate(279,73)"/>
<path d="M0 0 C0.66 0 1.32 0 2 0 C2 0.99 2 1.98 2 3 C1.34 3.66 0.68 4.32 0 5 C0.33 5.66 0.66 6.32 1 7 C-1.64 7.33 -4.28 7.66 -7 8 C-7 7.34 -7 6.68 -7 6 C-6.01 5.67 -5.02 5.34 -4 5 C-4.66 4.34 -5.32 3.68 -6 3 C-5.34 3 -4.68 3 -4 3 C-3.67 2.34 -3.34 1.68 -3 1 C-3 1.66 -3 2.32 -3 3 C-2.34 3 -1.68 3 -1 3 C-0.67 2.01 -0.34 1.02 0 0 Z " fill="#D5B453" transform="translate(263,51)"/>
<path d="M0 0 C1.98 0.495 1.98 0.495 4 1 C4 1.99 4 2.98 4 4 C4.99 4.33 5.98 4.66 7 5 C6.67 5.66 6.34 6.32 6 7 C5.01 6.67 4.02 6.34 3 6 C3 6.99 3 7.98 3 9 C2.34 9 1.68 9 1 9 C-1 6 -1 6 -1 3 C-0.34 3 0.32 3 1 3 C0.67 2.01 0.34 1.02 0 0 Z " fill="#E0BE5C" transform="translate(243,154)"/>
<path d="M0 0 C0.66 0.33 1.32 0.66 2 1 C2.309375 2.11375 2.61875 3.2275 2.9375 4.375 C3.91204934 7.69993306 4.3498113 8.95212691 7 11 C6.236875 10.835 5.47375 10.67 4.6875 10.5 C1.96403764 9.90854604 1.96403764 9.90854604 -1 10 C-1.125 2.25 -1.125 2.25 0 0 Z " fill="#F5EB8D" transform="translate(523,103)"/>
<path d="M0 0 C1.98 0 3.96 0 6 0 C4.68 1.32 3.36 2.64 2 4 C1.34 2.68 0.68 1.36 0 0 Z M-4 2 C-3.01 2 -2.02 2 -1 2 C-1 2.66 -1 3.32 -1 4 C-0.34 4.33 0.32 4.66 1 5 C0.01 5.66 -0.98 6.32 -2 7 C-3.32 6.34 -4.64 5.68 -6 5 C-5.34 4.01 -4.68 3.02 -4 2 Z " fill="#EFCF6A" transform="translate(167,73)"/>
<path d="M0 0 C0.66 0 1.32 0 2 0 C2.33 0.66 2.66 1.32 3 2 C3.33 2 3.66 2 4 2 C4.33 4.31 4.66 6.62 5 9 C4.34 9 3.68 9 3 9 C2.67 8.34 2.34 7.68 2 7 C1.34 7.66 0.68 8.32 0 9 C-0.99 8.67 -1.98 8.34 -3 8 C-3 7.34 -3 6.68 -3 6 C-2.01 6 -1.02 6 0 6 C0 4.02 0 2.04 0 0 Z " fill="#DCBA5A" transform="translate(260,68)"/>
<path d="M0 0 C0.99 0.495 0.99 0.495 2 1 C1.67 1.66 1.34 2.32 1 3 C1.66 3 2.32 3 3 3 C3.33 2.01 3.66 1.02 4 0 C4 0.99 4 1.98 4 3 C4.66 3 5.32 3 6 3 C6 2.34 6 1.68 6 1 C6.66 1 7.32 1 8 1 C7.67 1.99 7.34 2.98 7 4 C6.01 4 5.02 4 4 4 C3.87625 4.969375 3.7525 5.93875 3.625 6.9375 C3.41875 7.948125 3.2125 8.95875 3 10 C2.01 10.495 2.01 10.495 1 11 C0.67 7.37 0.34 3.74 0 0 Z " fill="#DFC05D" transform="translate(243,41)"/>
<path d="M0 0 C1.32 0 2.64 0 4 0 C4 0.66 4 1.32 4 2 C4.99 2 5.98 2 7 2 C7 2.66 7 3.32 7 4 C5.68 4.33 4.36 4.66 3 5 C2.67 7.97 2.34 10.94 2 14 C1.67 14 1.34 14 1 14 C0.67 9.38 0.34 4.76 0 0 Z " fill="#E1C05F" transform="translate(392,119)"/>
<path d="M0 0 C2.475 0.99 2.475 0.99 5 2 C4.75 3.875 4.75 3.875 4 6 C1.9375 7.25 1.9375 7.25 0 8 C0 7.34 0 6.68 0 6 C-0.66 5.67 -1.32 5.34 -2 5 C-1.34 3.35 -0.68 1.7 0 0 Z " fill="#C3A045" transform="translate(319,40)"/>
<path d="M0 0 C2.49505962 2.49505962 2.35948376 3.67328888 2.625 7.125 C2.69976563 8.03507812 2.77453125 8.94515625 2.8515625 9.8828125 C2.90054688 10.58148438 2.94953125 11.28015625 3 12 C2.34 11.01 1.68 10.02 1 9 C1.33 8.34 1.66 7.68 2 7 C1.01 7 0.02 7 -1 7 C-1.33 7.99 -1.66 8.98 -2 10 C-2.93423645 6.98968256 -3.04449911 6.13349732 -2 3 C-1.34 3 -0.68 3 0 3 C0 2.01 0 1.02 0 0 Z " fill="#F3E989" transform="translate(524,39)"/>
<path d="M0 0 C2.97 1.98 2.97 1.98 6 4 C5.25 5.9375 5.25 5.9375 4 8 C1.875 8.75 1.875 8.75 0 9 C0.33 8.01 0.66 7.02 1 6 C0.72428861 3.99124558 0.39764263 1.98821313 0 0 Z " fill="#F5E684" transform="translate(504,20)"/>
<path d="M0 0 C0.99 0 1.98 0 3 0 C3 0.66 3 1.32 3 2 C3.99 2 4.98 2 6 2 C5.39816251 4.02045442 4.72693904 6.02111039 4 8 C3.01 8.495 3.01 8.495 2 9 C1.34 8.34 0.68 7.68 0 7 C0.66 7 1.32 7 2 7 C2 6.01 2 5.02 2 4 C1.34 3.67 0.68 3.34 0 3 C0 2.01 0 1.02 0 0 Z " fill="#E4C664" transform="translate(406,48)"/>
<path d="M0 0 C2.64 0 5.28 0 8 0 C7.6875 1.9375 7.6875 1.9375 7 4 C6.01 4.33 5.02 4.66 4 5 C4 4.34 4 3.68 4 3 C3.34 3 2.68 3 2 3 C1.67 3.66 1.34 4.32 1 5 C0.67 3.35 0.34 1.7 0 0 Z " fill="#DCBA56" transform="translate(30,163)"/>
<path d="M0 0 C2.35171131 0.59861742 4.6859378 1.26924352 7 2 C7.33 2.66 7.66 3.32 8 4 C7.34 4 6.68 4 6 4 C6 5.98 6 7.96 6 10 C5.01 9.67 4.02 9.34 3 9 C3.33 7.35 3.66 5.7 4 4 C2.68 3.34 1.36 2.68 0 2 C0 1.34 0 0.68 0 0 Z " fill="#E1C561" transform="translate(438,160)"/>
<path d="M0 0 C0.6875 1.75 0.6875 1.75 1 4 C-0.3125 6.25 -0.3125 6.25 -2 8 C-2.66 8 -3.32 8 -4 8 C-4.33 8.99 -4.66 9.98 -5 11 C-5 8.03 -5 5.06 -5 2 C-3.33333333 2 -1.66666667 2 0 2 C0 1.34 0 0.68 0 0 Z " fill="#E1C060" transform="translate(399,71)"/>
<path d="M0 0 C0.99 0.66 1.98 1.32 3 2 C2.1875 5.4375 2.1875 5.4375 1 9 C0.01 9.33 -0.98 9.66 -2 10 C-2.33 8.35 -2.66 6.7 -3 5 C-2.34 4.67 -1.68 4.34 -1 4 C-0.34786708 1.97536745 -0.34786708 1.97536745 0 0 Z " fill="#F0E081" transform="translate(506,31)"/>
<path d="M0 0 C1.32 0.33 2.64 0.66 4 1 C2.51218185 4.78717347 0.38011591 6.77407001 -3 9 C-3.99 8.67 -4.98 8.34 -6 8 C-4.4375 6.79557292 -2.875 5.59114583 -1.3125 4.38671875 C0.34370205 2.95508863 0.34370205 2.95508863 0 0 Z " fill="#F0DF7D" transform="translate(510,151)"/>
<path d="M0 0 C0.66 0 1.32 0 2 0 C2 2.97 2 5.94 2 9 C1.01 8.67 0.02 8.34 -1 8 C-2.1875 5.4375 -2.1875 5.4375 -3 3 C-2.01 3 -1.02 3 0 3 C0 2.01 0 1.02 0 0 Z " fill="#D5B354" transform="translate(269,88)"/>
<path d="M0 0 C0.99 0.33 1.98 0.66 3 1 C3 4 3 4 1.5 5.6875 C1.005 6.120625 0.51 6.55375 0 7 C0 6.01 0 5.02 0 4 C-0.66 4 -1.32 4 -2 4 C-1.67 4.99 -1.34 5.98 -1 7 C-1.66 7 -2.32 7 -3 7 C-3.33 5.68 -3.66 4.36 -4 3 C-3.34 3 -2.68 3 -2 3 C-2 2.34 -2 1.68 -2 1 C-1.34 0.67 -0.68 0.34 0 0 Z " fill="#CFAC4F" transform="translate(285,76)"/>
<path d="M0 0 C0.33 0 0.66 0 1 0 C1 1.98 1 3.96 1 6 C1.66 6 2.32 6 3 6 C3 6.66 3 7.32 3 8 C4.32 8.33 5.64 8.66 7 9 C6.34 10.32 5.68 11.64 5 13 C0.17970402 9.14376321 0.17970402 9.14376321 -0.33203125 5.88671875 C-0.3145776 3.92143786 -0.16596091 1.95833873 0 0 Z " fill="#EFDF7A" transform="translate(496,24)"/>
<path d="M0 0 C0.33 0.99 0.66 1.98 1 3 C1.66 3 2.32 3 3 3 C3 4.65 3 6.3 3 8 C1.68 8 0.36 8 -1 8 C-1.625 5.6875 -1.625 5.6875 -2 3 C-1.34 2.01 -0.68 1.02 0 0 Z " fill="#EBCC6A" transform="translate(256,29)"/>
<path d="M0 0 C-1.485 2.475 -1.485 2.475 -3 5 C-4.65 4.67 -6.3 4.34 -8 4 C-8 3.34 -8 2.68 -8 2 C-3.61016949 -1.20338983 -3.61016949 -1.20338983 0 0 Z " fill="#EFD26E" transform="translate(252,36)"/>
<path d="M0 0 C-0.33 1.98 -0.66 3.96 -1 6 C-1.66 6 -2.32 6 -3 6 C-3 6.66 -3 7.32 -3 8 C-3.99 8 -4.98 8 -6 8 C-6 7.01 -6 6.02 -6 5 C-5.34 5 -4.68 5 -4 5 C-4.33 4.01 -4.66 3.02 -5 2 C-2 0 -2 0 0 0 Z " fill="#E5CA67" transform="translate(267,11)"/>
<path d="M0 0 C1.98 0 3.96 0 6 0 C6 2.64 6 5.28 6 8 C5.34 8 4.68 8 4 8 C2 4.25 2 4.25 2 2 C1.34 1.34 0.68 0.68 0 0 Z " fill="#EECD67" transform="translate(88,12)"/>
<path d="M0 0 C0 0.99 0 1.98 0 3 C-6.75 4.125 -6.75 4.125 -9 3 C-9 2.34 -9 1.68 -9 1 C-5.57367167 -0.61798838 -3.61944899 -1.34053666 0 0 Z " fill="#E2C160" transform="translate(437,14)"/>
<path d="M0 0 C1.65 0 3.3 0 5 0 C5.33 1.65 5.66 3.3 6 5 C5.67 4.34 5.34 3.68 5 3 C4.34 3 3.68 3 3 3 C2.67 4.32 2.34 5.64 2 7 C0 5 0 5 -0.125 2.375 C-0.08375 1.59125 -0.0425 0.8075 0 0 Z " fill="#F1E483" transform="translate(507,41)"/>
<path d="M0 0 C0.66 0.66 1.32 1.32 2 2 C1.2575 2.2475 0.515 2.495 -0.25 2.75 C-3.09997265 3.85126021 -3.09997265 3.85126021 -5.125 6.125 C-5.74375 6.74375 -6.3625 7.3625 -7 8 C-7.99 8 -8.98 8 -10 8 C-10 7.34 -10 6.68 -10 6 C-9.01 6 -8.02 6 -7 6 C-6.67 5.01 -6.34 4.02 -6 3 C-2.9375 1.3125 -2.9375 1.3125 0 0 Z " fill="#D8B656" transform="translate(350,156)"/>
<path d="M0 0 C0.66 0.33 1.32 0.66 2 1 C1.67 1.33 1.34 1.66 1 2 C1.66 2.33 2.32 2.66 3 3 C2.67 4.65 2.34 6.3 2 8 C0.68 7.67 -0.64 7.34 -2 7 C-2.125 4.625 -2.125 4.625 -2 2 C-1.34 1.34 -0.68 0.68 0 0 Z " fill="#FBF18E" transform="translate(510,143)"/>
<path d="M0 0 C0.33 0.66 0.66 1.32 1 2 C1.66 2 2.32 2 3 2 C3 2.66 3 3.32 3 4 C3.66 4 4.32 4 5 4 C5 4.66 5 5.32 5 6 C4.34 6 3.68 6 3 6 C3 6.66 3 7.32 3 8 C1.68 8 0.36 8 -1 8 C-0.67 5.36 -0.34 2.72 0 0 Z " fill="#DAB959" transform="translate(254,65)"/>
<path d="M0 0 C-0.99 0.33 -1.98 0.66 -3 1 C-3 3.64 -3 6.28 -3 9 C-3.99 9.495 -3.99 9.495 -5 10 C-5.66 6.7 -6.32 3.4 -7 0 C-4.3333581 -1.33332095 -2.83319697 -0.67102033 0 0 Z " fill="#D2AF53" transform="translate(344,20)"/>
<path d="M0 0 C1.98 0 3.96 0 6 0 C5.34 2.31 4.68 4.62 4 7 C3.67 6.01 3.34 5.02 3 4 C0.98491642 3.26676204 0.98491642 3.26676204 -1 3 C-0.67 2.01 -0.34 1.02 0 0 Z " fill="#DDBF5D" transform="translate(462,9)"/>
<path d="M0 0 C2 2 2 2 2 5 C-0.31 4.67 -2.62 4.34 -5 4 C-5 3.34 -5 2.68 -5 2 C-3.35 1.34 -1.7 0.68 0 0 Z " fill="#CAA74A" transform="translate(249,87)"/>
<path d="M0 0 C0 0.66 0 1.32 0 2 C-0.66 2 -1.32 2 -2 2 C-2.33 3.65 -2.66 5.3 -3 7 C-3.99 7.33 -4.98 7.66 -6 8 C-6 7.34 -6 6.68 -6 6 C-5.34 6 -4.68 6 -4 6 C-4.66 5.34 -5.32 4.68 -6 4 C-6 3.01 -6 2.02 -6 1 C-4 0 -4 0 0 0 Z " fill="#FDF89B" transform="translate(521,64)"/>
<path d="M0 0 C0.99 0.33 1.98 0.66 3 1 C3 2.65 3 4.3 3 6 C1.35 6.33 -0.3 6.66 -2 7 C-1.125 1.125 -1.125 1.125 0 0 Z " fill="#D4B155" transform="translate(332,142)"/>
<path d="M0 0 C0.66 0.33 1.32 0.66 2 1 C2 1.99 2 2.98 2 4 C2.66 4 3.32 4 4 4 C4 4.66 4 5.32 4 6 C1.36 6.33 -1.28 6.66 -4 7 C-2.68 4.69 -1.36 2.38 0 0 Z " fill="#FAEE8C" transform="translate(505,138)"/>
<path d="M0 0 C0.66 0 1.32 0 2 0 C1.50769231 6.52307692 1.50769231 6.52307692 -1.0625 8.9375 C-1.701875 9.288125 -2.34125 9.63875 -3 10 C-2.67 7.36 -2.34 4.72 -2 2 C-1.34 2 -0.68 2 0 2 C0 1.34 0 0.68 0 0 Z " fill="#D9BA58" transform="translate(413,138)"/>
<path d="M0 0 C1.55932272 3.11864545 0.65549131 5.66295335 0 9 C-2 11 -2 11 -4 12 C-4 11.34 -4 10.68 -4 10 C-4.66 9.67 -5.32 9.34 -6 9 C-4.68 8.67 -3.36 8.34 -2 8 C-2.061875 6.576875 -2.061875 6.576875 -2.125 5.125 C-2 2 -2 2 0 0 Z " fill="#D0AF51" transform="translate(394,86)"/>
<path d="M0 0 C0.99 0 1.98 0 3 0 C3 1.65 3 3.3 3 5 C2.34 5 1.68 5 1 5 C1 5.66 1 6.32 1 7 C0.01 7 -0.98 7 -2 7 C-2.33 6.01 -2.66 5.02 -3 4 C-2.01 3.67 -1.02 3.34 0 3 C0 2.01 0 1.02 0 0 Z " fill="#DFBF5E" transform="translate(404,79)"/>
<path d="M0 0 C1.0625 1.875 1.0625 1.875 2 4 C1.67 4.66 1.34 5.32 1 6 C0.01 6 -0.98 6 -2 6 C-2.33 6.99 -2.66 7.98 -3 9 C-2.4140625 2.84765625 -2.4140625 2.84765625 -2 1 C-1.34 0.67 -0.68 0.34 0 0 Z " fill="#F5E988" transform="translate(521,65)"/>
<path d="M0 0 C1.98 0.99 1.98 0.99 4 2 C4 2.66 4 3.32 4 4 C3.34 4 2.68 4 2 4 C2 5.65 2 7.3 2 9 C1.34 9 0.68 9 0 9 C0 6.03 0 3.06 0 0 Z " fill="#C5A446" transform="translate(406,31)"/>
<path d="M0 0 C0.99 0.33 1.98 0.66 3 1 C3 2.65 3 4.3 3 6 C1.35 6 -0.3 6 -2 6 C-2 5.01 -2 4.02 -2 3 C-1.34 3 -0.68 3 0 3 C0 2.01 0 1.02 0 0 Z " fill="#F1DD77" transform="translate(467,168)"/>
<path d="M0 0 C1.32 0 2.64 0 4 0 C2.46312312 3.07375376 0.71085145 6.01980715 -1 9 C-1.66 8.01 -2.32 7.02 -3 6 C-2.01 4.02 -1.02 2.04 0 0 Z " fill="#DABB58" transform="translate(411,132)"/>
<path d="M0 0 C0.99 0.66 1.98 1.32 3 2 C2.34 2 1.68 2 1 2 C0.67 3.32 0.34 4.64 0 6 C-1.65 5.67 -3.3 5.34 -5 5 C-5 4.01 -5 3.02 -5 2 C-3.35 2 -1.7 2 0 2 C0 1.34 0 0.68 0 0 Z " fill="#D6B455" transform="translate(262,78)"/>
<path d="M0 0 C2 3 2 3 2 6 C2.99 6.33 3.98 6.66 5 7 C3.02 7.33 1.04 7.66 -1 8 C-1.04241723 5.66705225 -1.04092937 3.33297433 -1 1 C-0.67 0.67 -0.34 0.34 0 0 Z " fill="#E4C966" transform="translate(451,11)"/>
<path d="M0 0 C0 1.65 0 3.3 0 5 C-0.66 5 -1.32 5 -2 5 C-2 4.34 -2 3.68 -2 3 C-2.66 3 -3.32 3 -4 3 C-3.67 3.99 -3.34 4.98 -3 6 C-3.99 6 -4.98 6 -6 6 C-5.67 4.35 -5.34 2.7 -5 1 C-1.125 0 -1.125 0 0 0 Z " fill="#F7DE77" transform="translate(176,11)"/>
<path d="M0 0 C2.05078125 0.03255208 4.1015625 0.06510417 6.15234375 0.09765625 C5.15234375 2.09765625 5.15234375 2.09765625 2.15234375 4.09765625 C1.16234375 3.43765625 0.17234375 2.77765625 -0.84765625 2.09765625 C-1.17765625 3.08765625 -1.50765625 4.07765625 -1.84765625 5.09765625 C-2.41015625 3.16015625 -2.41015625 3.16015625 -2.84765625 1.09765625 C-1.84765625 0.09765625 -1.84765625 0.09765625 0 0 Z " fill="#DBBE5B" transform="translate(453.84765625,8.90234375)"/>
<path d="M0 0 C1.65 0 3.3 0 5 0 C5.33 1.32 5.66 2.64 6 4 C4.35 4 2.7 4 1 4 C0.67 2.68 0.34 1.36 0 0 Z " fill="#DEBC5B" transform="translate(354,166)"/>
<path d="M0 0 C0.66 0 1.32 0 2 0 C2 3.3 2 6.6 2 10 C-0.58787727 7.41212273 -0.62709152 5.57992139 -1 2 C-0.67 1.34 -0.34 0.68 0 0 Z " fill="#D4B352" transform="translate(391,122)"/>
<path d="M0 0 C0.66 0 1.32 0 2 0 C2 0.66 2 1.32 2 2 C2.66 2.33 3.32 2.66 4 3 C3.67 4.32 3.34 5.64 3 7 C1.68 6.34 0.36 5.68 -1 5 C-0.67 3.35 -0.34 1.7 0 0 Z " fill="#D7B755" transform="translate(257,45)"/>
<path d="M0 0 C0.99 0 1.98 0 3 0 C3.1875 2.875 3.1875 2.875 3 6 C2.01 6.66 1.02 7.32 0 8 C0 6.68 0 5.36 0 4 C-0.99 3.67 -1.98 3.34 -3 3 C-2.01 2.67 -1.02 2.34 0 2 C0 1.34 0 0.68 0 0 Z " fill="#D1AE53" transform="translate(334,27)"/>
<path d="M0 0 C1.65 0 3.3 0 5 0 C5.33 1.65 5.66 3.3 6 5 C3.83125748 4.49396008 2.00032373 4.00016187 0 3 C0 2.01 0 1.02 0 0 Z " fill="#F3DD78" transform="translate(457,169)"/>
<path d="M0 0 C0.99 0.33 1.98 0.66 3 1 C2.67 1.99 2.34 2.98 2 4 C1.34 4 0.68 4 0 4 C0 4.99 0 5.98 0 7 C-0.66 7 -1.32 7 -2 7 C-2.125 4.625 -2.125 4.625 -2 2 C-1.34 1.34 -0.68 0.68 0 0 Z " fill="#F6E989" transform="translate(512,126)"/>
<path d="M0 0 C1.32 0 2.64 0 4 0 C6 2 6 2 6 5 C4.68 5 3.36 5 2 5 C2 4.01 2 3.02 2 2 C1.34 2 0.68 2 0 2 C0 1.34 0 0.68 0 0 Z " fill="#D4B155" transform="translate(259,114)"/>
<path d="M0 0 C0.66 0 1.32 0 2 0 C2.33 0.66 2.66 1.32 3 2 C3.66 2 4.32 2 5 2 C4.34 3.65 3.68 5.3 3 7 C1.68 5.68 0.36 4.36 -1 3 C-0.67 2.01 -0.34 1.02 0 0 Z " fill="#F2E98A" transform="translate(523,75)"/>
<path d="M0 0 C0.66 0 1.32 0 2 0 C2.33 2.64 2.66 5.28 3 8 C2.67 7.01 2.34 6.02 2 5 C1.01 5.33 0.02 5.66 -1 6 C-1.042721 4.33388095 -1.04063832 2.66617115 -1 1 C-0.67 0.67 -0.34 0.34 0 0 Z " fill="#E6C564" transform="translate(406,60)"/>
<path d="M0 0 C0.33 0 0.66 0 1 0 C1.33 1.98 1.66 3.96 2 6 C0.68 6.99 -0.64 7.98 -2 9 C-3.04449911 5.86650268 -2.93423645 5.01031744 -2 2 C-1.34 2 -0.68 2 0 2 C0 1.34 0 0.68 0 0 Z " fill="#D1AE52" transform="translate(312,49)"/>
<path d="M0 0 C-0.8125 1.9375 -0.8125 1.9375 -2 4 C-2.99 4.33 -3.98 4.66 -5 5 C-5 4.01 -5 3.02 -5 2 C-5.99 1.67 -6.98 1.34 -8 1 C-5.29120665 -0.35439668 -2.99066732 -0.06501451 0 0 Z " fill="#D7B655" transform="translate(442,12)"/>
<path d="M0 0 C2 3 2 3 2 5 C0.02 5.33 -1.96 5.66 -4 6 C-3.34 4.68 -2.68 3.36 -2 2 C-1.34 2 -0.68 2 0 2 C0 1.34 0 0.68 0 0 Z " fill="#F2E17C" transform="translate(489,164)"/>
<path d="M0 0 C1.32 0 2.64 0 4 0 C4 0.99 4 1.98 4 3 C3.01 3 2.02 3 1 3 C1 4.32 1 5.64 1 7 C0.34 7 -0.32 7 -1 7 C-0.67 4.69 -0.34 2.38 0 0 Z " fill="#DCBA57" transform="translate(26,159)"/>
<path d="M0 0 C1.98 0 3.96 0 6 0 C6.33 0.66 6.66 1.32 7 2 C4.09399739 3.25664978 2.20395416 4 -1 4 C-0.67 2.68 -0.34 1.36 0 0 Z " fill="#D2AF52" transform="translate(281,84)"/>
<path d="M0 0 C0.66 0 1.32 0 2 0 C2.33 0.66 2.66 1.32 3 2 C3.66 2 4.32 2 5 2 C5 1.34 5 0.68 5 0 C5.66 0 6.32 0 7 0 C6.1875 1.9375 6.1875 1.9375 5 4 C4.01 4.33 3.02 4.66 2 5 C1.01 3.68 0.02 2.36 -1 1 C-0.67 0.67 -0.34 0.34 0 0 Z " fill="#D6B358" transform="translate(310,42)"/>
<path d="M0 0 C0.66 0 1.32 0 2 0 C2 0.66 2 1.32 2 2 C2.66 2 3.32 2 4 2 C4 2.99 4 3.98 4 5 C3.01 5.33 2.02 5.66 1 6 C0.34 4.35 -0.32 2.7 -1 1 C-0.67 0.67 -0.34 0.34 0 0 Z " fill="#E4CD69" transform="translate(479,16)"/>
<path d="M0 0 C0.99 0 1.98 0 3 0 C3 1.65 3 3.3 3 5 C3.66 5.33 4.32 5.66 5 6 C3.68 6 2.36 6 1 6 C0.67 4.02 0.34 2.04 0 0 Z " fill="#D8B655" transform="translate(331,164)"/>
<path d="M0 0 C0.66 0 1.32 0 2 0 C1.67 1.65 1.34 3.3 1 5 C1.66 5 2.32 5 3 5 C2.67 6.32 2.34 7.64 2 9 C1.34 8.67 0.68 8.34 0 8 C0 5.36 0 2.72 0 0 Z " fill="#E0BF5A" transform="translate(62,159)"/>
<path d="M0 0 C0.99 0 1.98 0 3 0 C3 0.66 3 1.32 3 2 C2.34 2 1.68 2 1 2 C1.66 4.31 2.32 6.62 3 9 C2.01 9 1.02 9 0 9 C0 6.03 0 3.06 0 0 Z " fill="#D8B654" transform="translate(3,87)"/>
<path d="M0 0 C0 1.65 0 3.3 0 5 C-0.99 5.33 -1.98 5.66 -3 6 C-3.99 6.495 -3.99 6.495 -5 7 C-4.53479806 4.30182875 -3.4249099 0 0 0 Z " fill="#F2E382" transform="translate(499,148)"/>
<path d="M0 0 C1.98 0 3.96 0 6 0 C5.34 1.32 4.68 2.64 4 4 C2.35 3.67 0.7 3.34 -1 3 C-0.67 2.01 -0.34 1.02 0 0 Z " fill="#CCAA4A" transform="translate(245,151)"/>
<path d="M0 0 C0.33 0 0.66 0 1 0 C1 2.64 1 5.28 1 8 C0.01 7.67 -0.98 7.34 -2 7 C-1.34 7 -0.68 7 0 7 C0 6.01 0 5.02 0 4 C-0.99 4.33 -1.98 4.66 -3 5 C-1.125 1.125 -1.125 1.125 0 0 Z " fill="#D6B356" transform="translate(287,66)"/>
<path d="M0 0 C0.66 0 1.32 0 2 0 C2.33 1.98 2.66 3.96 3 6 C2.01 6 1.02 6 0 6 C0 5.01 0 4.02 0 3 C-0.66 2.67 -1.32 2.34 -2 2 C-1.34 2 -0.68 2 0 2 C0 1.34 0 0.68 0 0 Z " fill="#D4B453" transform="translate(406,65)"/>
<path d="M0 0 C0.66 0.99 1.32 1.98 2 3 C0 5 0 5 -2.625 5.125 C-3.40875 5.08375 -4.1925 5.0425 -5 5 C-5 4.34 -5 3.68 -5 3 C-3.68 3 -2.36 3 -1 3 C-0.67 2.01 -0.34 1.02 0 0 Z " fill="#C3A044" transform="translate(306,58)"/>
<path d="M0 0 C0.66 0 1.32 0 2 0 C1.1875 2.4375 1.1875 2.4375 0 5 C-0.99 5.33 -1.98 5.66 -3 6 C-3 4.35 -3 2.7 -3 1 C-2.01 1.33 -1.02 1.66 0 2 C0 1.34 0 0.68 0 0 Z " fill="#ECCD6B" transform="translate(259,40)"/>
<path d="M0 0 C0.99 0.33 1.98 0.66 3 1 C2.25 5.75 2.25 5.75 0 8 C-1.125 2.25 -1.125 2.25 0 0 Z " fill="#E5C765" transform="translate(422,18)"/>
<path d="M0 0 C0.66 0.33 1.32 0.66 2 1 C2 3.31 2 5.62 2 8 C1.34 8 0.68 8 0 8 C-0.38063221 5.6739143 -0.71269945 3.33944736 -1 1 C-0.67 0.67 -0.34 0.34 0 0 Z " fill="#F5E07C" transform="translate(477,13)"/>
</svg>
